<?xml version="1.0" encoding="UTF-8" standalone="no"?>
<svg
   id="Capa_1"
   data-name="Capa 1"
   viewBox="0 0 685.5802 452.33734"
   version="1.1"
   width="685.5802"
   height="452.33734"
   xmlns="http://www.w3.org/2000/svg"
   xmlns:svg="http://www.w3.org/2000/svg">
  <defs
     id="defs1">
    <style
       id="style1">
      .cls-1 {
        fill: #45d4ff;
      }
    </style>
  </defs>
  <path
     id="UNCo_Activa"
     data-name="UNCo Activa"
     class="cls-1"
     d="m 681.79078,255.67256 c -14.28,-23.76 -47,-19.28 -63.39,-17.92 -8.25,0.68 -17.55,2.14 -27.31,4.19 10.76,-23.25 17.7,-38.83 17.7,-38.83 0,0 77.16,-140.03 30.47,-184.7 -46.72,-44.65 -162.38,66.98 -162.38,66.98 0,0 -186.25,168.69 -193.05,174.28 -6.8,5.61 -81,69.28 -81,-11.91 0,-81.19 92.42,-196.02 107.53,-211.92 23.93,-25.27 29.5,-56.09 -12.15,-17.43 -12.71,11.82 -137.63,153.74 -168.93,195.98 -31.300004,42.22 -144.530004,196.55 -127.4000036,222.16 17.1299996,25.57 97.5499996,-9.62 123.8200036,-22.35 55.86,-27.01 201.48,-154.55 233.26,-184.17 22.74,-17.99 139.87,-141.02 170.46,-100.18 16.91,22.49 9.7,81.3 -0.22,129.59 -35.96,12.25 -72.42,27.83 -99.36,41.66 -46.36,23.8 -125.6,74.02 -135.76,83.48 -10.19,9.45 -50.21,40.13 49.63,-12.19 93.05,-48.71 123.71,-62.08 176.98,-75.65 -5.15,20.45 -9.34,34.26 -9.34,34.26 l -34.46,91.32 c 0,0 -24.36,62.95 16.24,6.14 21.29,-29.84 52.07,-90.37 76.58,-141.26 46.4,-5.57 63.44,-0.47 84.57,-0.86 10.29,-0.22 41.81,-6.92 27.52,-30.67" />
</svg>
