<?xml version="1.0" encoding="UTF-8" standalone="no"?>
<svg
   viewBox="0 0 985.8973 211.31732"
   height="211.31732"
   width="985.89728"
   xml:space="preserve"
   id="svg2"
   version="1.1"
   sodipodi:docname="Marca_ANAAR_Positiva.svg"
   inkscape:version="1.1 (c68e22c387, 2021-05-23)"
   xmlns:inkscape="http://www.inkscape.org/namespaces/inkscape"
   xmlns:sodipodi="http://sodipodi.sourceforge.net/DTD/sodipodi-0.dtd"
   xmlns="http://www.w3.org/2000/svg"
   xmlns:svg="http://www.w3.org/2000/svg"
   xmlns:rdf="http://www.w3.org/1999/02/22-rdf-syntax-ns#"
   xmlns:cc="http://creativecommons.org/ns#"
   xmlns:dc="http://purl.org/dc/elements/1.1/"><sodipodi:namedview
     id="namedview114"
     pagecolor="#ffffff"
     bordercolor="#666666"
     borderopacity="1.0"
     inkscape:pageshadow="2"
     inkscape:pageopacity="0.0"
     inkscape:pagecheckerboard="0"
     showgrid="false"
     height="211.31732px"
     width="986.89728px"
     inkscape:zoom="0.36157269"
     inkscape:cx="112.01067"
     inkscape:cy="-413.47149"
     inkscape:window-width="1920"
     inkscape:window-height="1017"
     inkscape:window-x="-8"
     inkscape:window-y="-8"
     inkscape:window-maximized="1"
     inkscape:current-layer="svg2" /><metadata
     id="metadata8"><rdf:RDF><cc:Work
         rdf:about=""><dc:format>image/svg+xml</dc:format><dc:type
           rdf:resource="http://purl.org/dc/dcmitype/StillImage" /></cc:Work></rdf:RDF></metadata><defs
     id="defs6"><clipPath
       id="clipPath22"
       clipPathUnits="userSpaceOnUse"><path
         id="path20"
         d="M 0,313.738 H 896.173 V 0 H 0 Z" /></clipPath></defs><g
     transform="matrix(1.3333333,0,0,-1.3333333,-104.77005,314.3819)"
     id="g10"><path
       id="path12"
       style="fill:#2d2c2e;fill-opacity:1;fill-rule:nonzero;stroke:none"
       d="M 815.306,80.338 H 242.592 V 233.4 h 572.714 z m -574.714,-2 H 817.306 V 235.4 H 240.592 Z" /><path
       id="path14"
       style="fill:#2d2c2e;fill-opacity:1;fill-rule:nonzero;stroke:none"
       d="m 717.779,148.26 h -2.28 v -17.663 h 2.28 z" /><g
       id="g16"><g
         clip-path="url(#clipPath22)"
         id="g18"><g
           transform="translate(728.8124,146.6872)"
           id="g24"><path
             id="path26"
             style="fill:#2d2c2e;fill-opacity:1;fill-rule:nonzero;stroke:none"
             d="m 0,0 c 3.799,0 5.634,-3.668 5.634,-7.18 0,-4.009 -2.045,-7.338 -5.66,-7.338 -3.591,0 -5.635,3.381 -5.635,7.154 C -5.661,-3.486 -3.773,0 0,0 m -0.158,-16.377 c 4.508,0 8.202,3.223 8.202,9.302 0,5.241 -3.118,8.936 -7.939,8.936 -4.718,0 -8.203,-3.669 -8.203,-9.277 0,-5.346 3.275,-8.961 7.94,-8.961" /></g><g
           transform="translate(707.9804,130.3348)"
           id="g28"><path
             id="path30"
             style="fill:#2d2c2e;fill-opacity:1;fill-rule:nonzero;stroke:none"
             d="M 0,0 C 2.149,0 3.826,0.421 4.663,0.839 L 4.192,2.648 C 3.275,2.203 1.859,1.914 0.471,1.914 c -4.297,0 -6.787,2.777 -6.787,7.101 0,4.639 2.752,7.286 6.893,7.286 1.466,0 2.698,-0.315 3.562,-0.735 l 0.551,1.862 c -0.603,0.313 -1.991,0.786 -4.192,0.786 -5.477,0 -9.225,-3.748 -9.225,-9.278 C -8.727,3.146 -4.979,0 0,0" /></g><path
           id="path32"
           style="fill:#2d2c2e;fill-opacity:1;fill-rule:nonzero;stroke:none"
           d="m 659.868,148.26 h -2.28 v -17.663 h 2.28 z" /><g
           transform="translate(642.4951,138.1439)"
           id="g34"><path
             id="path36"
             style="fill:#2d2c2e;fill-opacity:1;fill-rule:nonzero;stroke:none"
             d="m 0,0 c 0,2.935 -0.053,5.058 -0.184,7.286 l 0.079,0.026 C 0.785,5.399 1.965,3.381 3.197,1.416 l 5.608,-8.962 h 2.306 V 10.116 H 8.962 V 2.727 c 0,-2.752 0.051,-4.902 0.261,-7.259 L 9.171,-4.558 C 8.333,-2.751 7.311,-0.89 6.001,1.179 L 0.34,10.116 H -2.15 V -7.546 H 0 Z" /></g><g
           transform="translate(689.7144,143.0456)"
           id="g38"><path
             id="path40"
             style="fill:#2d2c2e;fill-opacity:1;fill-rule:nonzero;stroke:none"
             d="M 0,0 C 0.342,1.074 0.629,2.149 0.892,3.196 H 0.944 C 1.206,2.175 1.468,1.127 1.861,-0.026 L 3.591,-5.11 H -1.73 Z M -2.201,-6.893 H 4.062 L 5.95,-12.448 H 8.386 L 2.359,5.215 h -2.752 l -6,-17.663 h 2.359 z" /></g><g
           transform="translate(666.0275,138.1701)"
           id="g42"><path
             id="path44"
             style="fill:#2d2c2e;fill-opacity:1;fill-rule:nonzero;stroke:none"
             d="M 0,0 C 0.156,2.648 0.288,5.608 0.34,7.81 H 0.393 C 0.89,5.713 1.598,3.433 2.436,0.944 l 2.857,-8.411 h 1.729 l 3.118,8.568 c 0.892,2.437 1.626,4.638 2.227,6.709 h 0.079 C 12.42,5.608 12.578,2.648 12.709,0.184 l 0.445,-7.757 h 2.228 L 14.281,10.09 H 11.372 L 8.228,1.547 C 7.441,-0.68 6.812,-2.62 6.367,-4.402 H 6.288 C 5.843,-2.567 5.24,-0.627 4.506,1.547 L 1.493,10.09 H -1.416 L -2.648,-7.573 h 2.175 z" /></g><g
           transform="translate(732.6118,152.3215)"
           id="g46"><path
             id="path48"
             style="fill:#2d2c2e;fill-opacity:1;fill-rule:nonzero;stroke:none"
             d="m 0,0 h -2.778 l -2.437,-3.04 h 1.887 z" /></g><g
           transform="translate(351.8895,138.8781)"
           id="g50"><path
             id="path52"
             style="fill:#2d2c2e;fill-opacity:1;fill-rule:nonzero;stroke:none"
             d="M 0,0 H 6.866 V 1.887 H 0 V 7.469 H 7.259 V 9.382 H -2.28 V -8.281 h 9.931 v 1.914 H 0 Z" /></g><g
           transform="translate(367.7952,140.6078)"
           id="g54"><path
             id="path56"
             style="fill:#2d2c2e;fill-opacity:1;fill-rule:nonzero;stroke:none"
             d="m 0,0 c -2.437,0.943 -3.512,1.756 -3.512,3.407 0,1.206 0.917,2.647 3.329,2.647 1.598,0 2.778,-0.525 3.354,-0.839 L 3.799,7.076 C 3.013,7.521 1.703,7.94 -0.105,7.94 c -3.432,0 -5.712,-2.044 -5.712,-4.796 0,-2.488 1.781,-3.982 4.664,-5.005 2.385,-0.917 3.328,-1.86 3.328,-3.51 0,-1.783 -1.363,-3.015 -3.695,-3.015 -1.572,0 -3.066,0.524 -4.088,1.153 l -0.577,-1.913 c 0.944,-0.628 2.804,-1.127 4.508,-1.127 4.167,0 6.185,2.359 6.185,5.084 C 4.508,-2.594 2.987,-1.153 0,0" /></g><g
           transform="translate(319.6577,137.9353)"
           id="g58"><path
             id="path60"
             style="fill:#2d2c2e;fill-opacity:1;fill-rule:nonzero;stroke:none"
             d="M 0,0 1.73,5.11 C 2.071,6.184 2.359,7.259 2.621,8.307 H 2.673 C 2.935,7.285 3.197,6.237 3.59,5.084 L 5.32,0 Z m 1.336,10.325 -6,-17.663 h 2.358 l 1.835,5.556 h 6.262 l 1.887,-5.556 h 2.437 L 4.088,10.325 Z" /></g><g
           transform="translate(373.4032,146.3209)"
           id="g62"><path
             id="path64"
             style="fill:#2d2c2e;fill-opacity:1;fill-rule:nonzero;stroke:none"
             d="M 0,0 H 5.372 V -15.723 H 7.678 V 0 h 5.398 V 1.939 H 0 Z" /></g><g
           transform="translate(300.163,138.8781)"
           id="g66"><path
             id="path68"
             style="fill:#2d2c2e;fill-opacity:1;fill-rule:nonzero;stroke:none"
             d="M 0,0 H 6.865 V 1.887 H 0 V 7.469 H 7.259 V 9.382 H -2.28 V -8.281 h 9.931 v 1.914 H 0 Z" /></g><g
           transform="translate(390.7239,138.8781)"
           id="g70"><path
             id="path72"
             style="fill:#2d2c2e;fill-opacity:1;fill-rule:nonzero;stroke:none"
             d="M 0,0 H 6.865 V 1.887 H 0 V 7.469 H 7.259 V 9.382 H -2.28 V -8.281 h 9.931 v 1.914 H 0 Z" /></g><g
           transform="translate(285.0162,132.2747)"
           id="g74"><path
             id="path76"
             style="fill:#2d2c2e;fill-opacity:1;fill-rule:nonzero;stroke:none"
             d="m 0,0 c -0.89,0 -1.729,0.026 -2.306,0.132 v 13.94 c 0.603,0.131 1.494,0.236 2.673,0.236 4.822,0 7.18,-2.647 7.155,-6.813 C 7.522,2.725 4.874,0 0,0 m 0.263,16.116 c -1.809,0 -3.46,-0.157 -4.849,-0.366 V -1.625 c 1.154,-0.131 2.516,-0.21 4.141,-0.21 3.433,0 6.158,0.892 7.809,2.543 1.651,1.625 2.542,3.983 2.542,6.865 0,2.856 -0.918,4.9 -2.489,6.342 -1.547,1.441 -3.879,2.201 -7.154,2.201" /></g><g
           transform="translate(527.4053,138.8781)"
           id="g78"><path
             id="path80"
             style="fill:#2d2c2e;fill-opacity:1;fill-rule:nonzero;stroke:none"
             d="M 0,0 H 6.866 V 1.887 H 0 V 7.469 H 7.259 V 9.382 H -2.28 V -8.281 h 9.933 v 1.914 H 0 Z" /></g><g
           transform="translate(741.9666,138.1439)"
           id="g82"><path
             id="path84"
             style="fill:#2d2c2e;fill-opacity:1;fill-rule:nonzero;stroke:none"
             d="m 0,0 c 0,2.935 -0.053,5.058 -0.184,7.286 l 0.079,0.026 C 0.785,5.399 1.965,3.381 3.197,1.416 l 5.608,-8.962 h 2.306 V 10.116 H 8.962 V 2.727 c 0,-2.752 0.051,-4.902 0.261,-7.259 L 9.171,-4.558 C 8.333,-2.751 7.311,-0.89 6.001,1.179 L 0.34,10.116 H -2.15 V -7.546 H 0 Z" /></g><g
           transform="translate(543.3128,140.6078)"
           id="g86"><path
             id="path88"
             style="fill:#2d2c2e;fill-opacity:1;fill-rule:nonzero;stroke:none"
             d="m 0,0 c -2.438,0.943 -3.512,1.756 -3.512,3.407 0,1.206 0.918,2.647 3.328,2.647 1.598,0 2.778,-0.525 3.354,-0.839 L 3.799,7.076 C 3.014,7.521 1.703,7.94 -0.105,7.94 c -3.433,0 -5.713,-2.044 -5.713,-4.796 0,-2.488 1.782,-3.982 4.665,-5.005 2.385,-0.917 3.328,-1.86 3.328,-3.51 0,-1.783 -1.362,-3.015 -3.695,-3.015 -1.573,0 -3.066,0.524 -4.088,1.153 l -0.577,-1.913 c 0.943,-0.628 2.804,-1.127 4.508,-1.127 4.167,0 6.184,2.359 6.184,5.084 C 4.507,-2.594 2.988,-1.153 0,0" /></g><path
           id="path90"
           style="fill:#2d2c2e;fill-opacity:1;fill-rule:nonzero;stroke:none"
           d="m 550.936,130.598 h 2.28 v 17.663 h -2.28 z" /><g
           transform="translate(499.1307,148.2601)"
           id="g92"><path
             id="path94"
             style="fill:#2d2c2e;fill-opacity:1;fill-rule:nonzero;stroke:none"
             d="m 0,0 h -2.28 v -17.663 h 9.828 v 1.914 H 0 Z" /></g><g
           transform="translate(484.1415,137.9353)"
           id="g96"><path
             id="path98"
             style="fill:#2d2c2e;fill-opacity:1;fill-rule:nonzero;stroke:none"
             d="M 0,0 1.73,5.11 C 2.072,6.184 2.359,7.259 2.622,8.307 H 2.674 C 2.935,7.285 3.198,6.237 3.591,5.084 L 5.321,0 Z m 1.337,10.325 -6,-17.663 h 2.358 l 1.834,5.556 H 5.792 L 7.68,-7.338 h 2.436 L 4.089,10.325 Z" /></g><path
           id="path100"
           style="fill:#2d2c2e;fill-opacity:1;fill-rule:nonzero;stroke:none"
           d="m 414.256,130.598 h 2.28 v 17.663 h -2.28 z" /><g
           transform="translate(438.7826,166.9902)"
           id="g102"><path
             id="path104"
             style="fill:#2d2c2e;fill-opacity:1;fill-rule:nonzero;stroke:none"
             d="M 0,0 C 0,2.883 -0.052,5.371 -0.158,7.704 L -0.079,7.73 C 0.786,5.66 1.939,3.381 2.987,1.493 L 6.76,-5.321 h 4.194 V 12.343 H 7.285 V 7.18 c 0,-2.646 0.078,-5.031 0.34,-7.364 H 7.547 C 6.76,1.807 5.712,4.01 4.664,5.869 L 0.995,12.343 H -3.669 V -5.321 H 0 Z" /></g><g
           transform="translate(405.189,183.5251)"
           id="g106"><path
             id="path108"
             style="fill:#2d2c2e;fill-opacity:1;fill-rule:nonzero;stroke:none"
             d="m 0,0 h -4.193 l -2.201,-3.223 h 3.197 z" /></g><g
           transform="translate(400.6291,176.4501)"
           id="g110"><path
             id="path112"
             style="fill:#2d2c2e;fill-opacity:1;fill-rule:nonzero;stroke:none"
             d="m 0,0 c 2.752,0 4.272,-2.725 4.272,-5.897 0,-3.433 -1.546,-6.001 -4.246,-6.001 -2.672,0 -4.297,2.438 -4.297,5.897 C -4.271,-2.569 -2.699,0 0,0 m -0.183,-15.068 c 5.163,0 8.674,3.51 8.674,9.302 0,4.874 -2.961,8.936 -8.386,8.936 -5.214,0 -8.595,-3.957 -8.595,-9.249 0,-5.032 3.066,-8.989 8.307,-8.989" /></g><path
           id="path114"
           style="fill:#2d2c2e;fill-opacity:1;fill-rule:nonzero;stroke:none"
           d="m 389.492,179.333 h -4.009 V 161.67 h 4.009 z" /><g
           transform="translate(426.4669,146.242)"
           id="g116"><path
             id="path118"
             style="fill:#2d2c2e;fill-opacity:1;fill-rule:nonzero;stroke:none"
             d="m 0,0 h 0.052 c 0.262,-1.022 0.525,-2.07 0.917,-3.223 l 1.73,-5.084 h -5.32 l 1.73,5.111 C -0.55,-2.122 -0.262,-1.048 0,0 m -7.285,-15.644 h 2.358 l 1.835,5.555 H 3.17 l 1.888,-5.555 H 7.495 L 1.467,2.018 h -2.751 z" /></g><g
           transform="translate(629.3654,143.0456)"
           id="g120"><path
             id="path122"
             style="fill:#2d2c2e;fill-opacity:1;fill-rule:nonzero;stroke:none"
             d="M 0,0 C 0.342,1.074 0.629,2.149 0.892,3.196 H 0.945 C 1.206,2.175 1.469,1.127 1.861,-0.026 L 3.591,-5.11 H -1.73 Z M -2.201,-6.893 H 4.062 L 5.95,-12.448 H 8.386 L 2.359,5.215 h -2.752 l -6,-17.663 h 2.359 z" /></g><g
           transform="translate(406.4473,146.6618)"
           id="g124"><path
             id="path126"
             style="fill:#2d2c2e;fill-opacity:1;fill-rule:nonzero;stroke:none"
             d="M 0,0 C 1.598,0 2.778,-0.525 3.354,-0.839 L 3.983,1.022 C 3.197,1.467 1.887,1.886 0.078,1.886 c -3.432,0 -5.712,-2.044 -5.712,-4.796 0,-2.488 1.781,-3.982 4.664,-5.005 2.385,-0.917 3.328,-1.86 3.328,-3.51 0,-1.783 -1.363,-3.015 -3.695,-3.015 -1.572,0 -3.066,0.524 -4.088,1.153 L -6.001,-15.2 c 0.943,-0.628 2.804,-1.127 4.507,-1.127 4.166,0 6.185,2.359 6.185,5.084 0,2.595 -1.521,4.036 -4.508,5.189 -2.437,0.943 -3.512,1.756 -3.512,3.407 C -3.329,-1.441 -2.411,0 0,0" /></g><g
           transform="translate(415.4086,166.9902)"
           id="g128"><path
             id="path130"
             style="fill:#2d2c2e;fill-opacity:1;fill-rule:nonzero;stroke:none"
             d="M 0,0 C 0,2.883 -0.052,5.371 -0.158,7.704 L -0.079,7.73 C 0.786,5.66 1.939,3.381 2.987,1.493 l 3.774,-6.814 h 4.192 V 12.343 H 7.285 V 7.18 c 0,-2.646 0.078,-5.031 0.34,-7.364 H 7.547 C 6.761,1.807 5.712,4.01 4.664,5.869 L 0.995,12.343 H -3.669 V -5.321 H 0 Z" /></g><g
           transform="translate(285.9073,172.9382)"
           id="g132"><path
             id="path134"
             style="fill:#2d2c2e;fill-opacity:1;fill-rule:nonzero;stroke:none"
             d="M 0,0 C 0.288,1.022 0.55,2.359 0.812,3.407 H 0.865 C 1.127,2.359 1.441,1.048 1.756,0 l 1.101,-3.747 h -3.905 z m -1.624,-6.735 h 5.057 l 1.363,-4.534 H 9.094 L 3.616,6.395 h -5.24 l -5.399,-17.664 h 4.141 z" /></g><g
           transform="translate(319.1871,176.4501)"
           id="g136"><path
             id="path138"
             style="fill:#2d2c2e;fill-opacity:1;fill-rule:nonzero;stroke:none"
             d="m 0,0 c 2.752,0 4.272,-2.725 4.272,-5.897 0,-3.433 -1.546,-6.001 -4.246,-6.001 -2.672,0 -4.297,2.438 -4.297,5.897 C -4.271,-2.569 -2.699,0 0,0 m -0.183,-15.068 c 5.163,0 8.674,3.51 8.674,9.302 0,4.874 -2.961,8.936 -8.386,8.936 -5.214,0 -8.595,-3.957 -8.595,-9.249 0,-5.032 3.066,-8.989 8.307,-8.989" /></g><g
           transform="translate(301.9188,164.6839)"
           id="g140"><path
             id="path142"
             style="fill:#2d2c2e;fill-opacity:1;fill-rule:nonzero;stroke:none"
             d="m 0,0 c -1.703,0 -3.354,0.55 -4.429,1.101 l -0.813,-3.302 c 0.997,-0.55 2.988,-1.074 5.006,-1.074 4.848,0 7.128,2.515 7.128,5.476 0,2.489 -1.468,4.115 -4.586,5.267 -2.28,0.865 -3.276,1.363 -3.276,2.49 0,0.916 0.839,1.703 2.568,1.703 1.73,0 2.988,-0.498 3.696,-0.839 l 0.89,3.224 c -1.048,0.472 -2.516,0.891 -4.507,0.891 -4.167,0 -6.683,-2.307 -6.683,-5.319 0,-2.569 1.914,-4.194 4.848,-5.216 C 1.965,3.642 2.803,3.013 2.803,1.912 2.803,0.759 1.834,0 0,0" /></g><g
           transform="translate(439.1242,133.8994)"
           id="g144"><path
             id="path146"
             style="fill:#2d2c2e;fill-opacity:1;fill-rule:nonzero;stroke:none"
             d="M 0,0 -2.568,-0.261 C -2.857,-2.175 -3.564,-4.979 -4.14,-6.525 l 1.651,0.156 C -1.756,-5.137 -0.603,-2.228 0,0" /></g><path
           id="path148"
           style="fill:#2d2c2e;fill-opacity:1;fill-rule:nonzero;stroke:none"
           d="m 349.898,179.333 h -4.009 V 161.67 h 4.009 z" /><g
           transform="translate(338.7362,161.4085)"
           id="g150"><path
             id="path152"
             style="fill:#2d2c2e;fill-opacity:1;fill-rule:nonzero;stroke:none"
             d="M 0,0 C 2.148,0 3.799,0.393 4.533,0.759 L 3.931,3.878 C 3.144,3.563 1.808,3.302 0.602,3.302 c -3.564,0 -5.66,2.227 -5.66,5.764 0,3.931 2.463,5.844 5.635,5.844 1.415,0 2.541,-0.313 3.354,-0.655 l 0.812,3.172 c -0.708,0.366 -2.28,0.785 -4.351,0.785 -5.345,0 -9.643,-3.354 -9.643,-9.381 C -9.251,3.799 -6.107,0 0,0" /></g><g
           transform="translate(359.0958,172.9382)"
           id="g154"><path
             id="path156"
             style="fill:#2d2c2e;fill-opacity:1;fill-rule:nonzero;stroke:none"
             d="M 0,0 C 0.288,1.022 0.55,2.359 0.812,3.407 H 0.865 C 1.127,2.359 1.441,1.048 1.756,0 l 1.101,-3.747 h -3.905 z m -1.625,-6.735 h 5.058 l 1.363,-4.534 H 9.094 L 3.616,6.395 h -5.241 l -5.398,-17.664 h 4.141 z" /></g><g
           transform="translate(343.4784,140.8706)"
           id="g158"><path
             id="path160"
             style="fill:#2d2c2e;fill-opacity:1;fill-rule:nonzero;stroke:none"
             d="M 0,0 C 0,-2.751 0.053,-4.902 0.262,-7.259 L 0.209,-7.285 c -0.838,1.807 -1.86,3.668 -3.17,5.738 l -5.66,8.936 h -2.49 v -17.662 h 2.149 v 7.546 c 0,2.936 -0.053,5.058 -0.183,7.286 l 0.079,0.027 c 0.89,-1.913 2.069,-3.932 3.301,-5.897 l 5.608,-8.962 H 2.149 V 7.389 H 0 Z" /></g><g
           transform="translate(378.3303,161.4085)"
           id="g162"><path
             id="path164"
             style="fill:#2d2c2e;fill-opacity:1;fill-rule:nonzero;stroke:none"
             d="M 0,0 C 2.148,0 3.799,0.393 4.533,0.759 L 3.931,3.878 C 3.144,3.563 1.808,3.302 0.602,3.302 c -3.564,0 -5.66,2.227 -5.66,5.764 0,3.931 2.463,5.844 5.634,5.844 1.416,0 2.542,-0.313 3.355,-0.655 l 0.812,3.172 c -0.708,0.366 -2.28,0.785 -4.35,0.785 -5.346,0 -9.643,-3.354 -9.643,-9.381 C -9.25,3.799 -6.107,0 0,0" /></g><g
           transform="translate(563.1491,146.242)"
           id="g166"><path
             id="path168"
             style="fill:#2d2c2e;fill-opacity:1;fill-rule:nonzero;stroke:none"
             d="m 0,0 h 0.053 c 0.261,-1.022 0.524,-2.07 0.916,-3.223 l 1.73,-5.084 h -5.321 l 1.73,5.111 C -0.55,-2.122 -0.263,-1.048 0,0 m -7.285,-15.644 h 2.359 l 1.833,5.555 H 3.17 l 1.888,-5.555 H 7.494 L 1.467,2.018 h -2.751 z" /></g><path
           id="path170"
           style="fill:#2d2c2e;fill-opacity:1;fill-rule:nonzero;stroke:none"
           d="m 525.728,179.333 h -4.01 V 161.67 h 4.01 z" /><g
           transform="translate(532.8557,166.9902)"
           id="g172"><path
             id="path174"
             style="fill:#2d2c2e;fill-opacity:1;fill-rule:nonzero;stroke:none"
             d="M 0,0 C 0,2.883 -0.053,5.371 -0.156,7.704 L -0.079,7.73 C 0.787,5.66 1.94,3.381 2.988,1.493 l 3.773,-6.814 h 4.194 V 12.343 H 7.285 V 7.18 c 0,-2.646 0.079,-5.031 0.342,-7.364 H 7.548 C 6.761,1.807 5.713,4.01 4.665,5.869 L 0.997,12.343 H -3.668 V -5.321 H 0 Z" /></g><g
           transform="translate(553.0075,172.9382)"
           id="g176"><path
             id="path178"
             style="fill:#2d2c2e;fill-opacity:1;fill-rule:nonzero;stroke:none"
             d="M 0,0 C 0.287,1.022 0.55,2.359 0.811,3.407 H 0.864 C 1.127,2.359 1.441,1.048 1.756,0 l 1.101,-3.747 h -3.905 z m -1.625,-6.735 h 5.056 l 1.364,-4.534 H 9.092 L 3.615,6.395 h -5.24 l -5.399,-17.664 h 4.141 z" /></g><g
           transform="translate(621.3494,132.5113)"
           id="g180"><path
             id="path182"
             style="fill:#2d2c2e;fill-opacity:1;fill-rule:nonzero;stroke:none"
             d="m 0,0 h -7.653 v 6.367 h 6.866 v 1.887 h -6.866 v 5.582 h 7.259 v 1.913 H -9.933 V -1.914 H 0 Z" /></g><g
           transform="translate(581.517,130.5976)"
           id="g184"><path
             id="path186"
             style="fill:#2d2c2e;fill-opacity:1;fill-rule:nonzero;stroke:none"
             d="M 0,0 H 2.306 V 7.522 L 8.23,17.663 H 5.634 L 3.093,12.788 C 2.411,11.453 1.809,10.299 1.311,9.146 H 1.258 c -0.55,1.231 -1.074,2.307 -1.755,3.642 l -2.489,4.875 H -5.582 L 0,7.495 Z" /></g><g
           transform="translate(599.5977,146.4252)"
           id="g188"><path
             id="path190"
             style="fill:#2d2c2e;fill-opacity:1;fill-rule:nonzero;stroke:none"
             d="M 0,0 C 0.368,0.105 1.153,0.21 2.254,0.21 4.665,0.184 6.316,-0.812 6.316,-3.092 6.316,-5.109 4.77,-6.447 2.332,-6.447 H 0 Z m 0,-8.176 h 2.15 c 2.07,-0.079 3.013,-0.996 3.537,-3.433 0.497,-2.201 0.892,-3.721 1.179,-4.219 h 2.359 c -0.366,0.682 -0.787,2.385 -1.363,4.848 -0.419,1.835 -1.232,3.093 -2.594,3.564 v 0.079 c 1.861,0.629 3.328,2.175 3.328,4.508 0,1.362 -0.498,2.567 -1.39,3.354 -1.1,0.995 -2.672,1.44 -5.109,1.44 -1.573,0 -3.224,-0.13 -4.377,-0.366 V -15.828 H 0 Z" /></g><g
           transform="translate(463.5708,130.5976)"
           id="g192"><path
             id="path194"
             style="fill:#2d2c2e;fill-opacity:1;fill-rule:nonzero;stroke:none"
             d="m 0,0 h 2.15 v 7.546 c 0,2.936 -0.052,5.058 -0.184,7.286 l 0.079,0.027 c 0.89,-1.913 2.07,-3.932 3.302,-5.897 L 10.955,0 h 2.306 v 17.663 h -2.149 v -7.39 c 0,-2.751 0.051,-4.902 0.262,-7.259 L 11.321,2.988 C 10.483,4.795 9.462,6.656 8.151,8.726 L 2.49,17.663 H 0 Z" /></g><g
           transform="translate(464.4628,164.9452)"
           id="g196"><path
             id="path198"
             style="fill:#2d2c2e;fill-opacity:1;fill-rule:nonzero;stroke:none"
             d="m 0,0 h -7.259 v 4.194 h 6.499 v 3.249 h -6.499 v 3.669 h 6.891 v 3.276 h -10.9 V -3.276 H 0 Z" /></g><g
           transform="translate(516.6625,146.5303)"
           id="g200"><path
             id="path202"
             style="fill:#2d2c2e;fill-opacity:1;fill-rule:nonzero;stroke:none"
             d="m 0,0 c 1.782,0 2.962,-0.341 3.905,-0.76 l 0.55,1.861 C 3.696,1.468 2.098,1.913 0.053,1.913 c -5.922,0 -9.539,-3.852 -9.566,-9.12 0,-2.752 0.945,-5.109 2.465,-6.577 1.729,-1.651 3.93,-2.333 6.603,-2.333 2.385,0 4.402,0.603 5.424,0.971 v 8.489 H -0.838 V -8.49 h 3.59 v -5.268 c -0.525,-0.261 -1.546,-0.471 -3.039,-0.471 -4.115,0 -6.814,2.646 -6.814,7.127 C -7.101,-2.673 -4.297,0 0,0" /></g><g
           transform="translate(452.5914,143.0456)"
           id="g204"><path
             id="path206"
             style="fill:#2d2c2e;fill-opacity:1;fill-rule:nonzero;stroke:none"
             d="M 0,0 C 0.342,1.074 0.629,2.149 0.892,3.196 H 0.945 C 1.206,2.175 1.469,1.127 1.861,-0.026 L 3.591,-5.11 H -1.73 Z M -4.035,-12.448 -2.2,-6.893 H 4.062 L 5.95,-12.448 H 8.386 L 2.359,5.215 h -2.752 l -6,-17.663 z" /></g><g
           transform="translate(474.2365,161.3822)"
           id="g208"><path
             id="path210"
             style="fill:#2d2c2e;fill-opacity:1;fill-rule:nonzero;stroke:none"
             d="m 0,0 c 4.612,0 7.364,2.594 7.364,8.044 v 9.907 H 3.381 V 7.783 c 0,-3.119 -1.154,-4.586 -3.25,-4.586 -2.043,0 -3.196,1.545 -3.196,4.586 v 10.168 h -4.01 V 8.097 C -7.075,2.462 -4.455,0 0,0" /></g><g
           transform="translate(492.7638,176.4501)"
           id="g212"><path
             id="path214"
             style="fill:#2d2c2e;fill-opacity:1;fill-rule:nonzero;stroke:none"
             d="m 0,0 c 2.725,0 4.246,-2.672 4.246,-5.897 0,-3.458 -1.573,-6.001 -4.272,-6.001 -2.673,0 -4.297,2.568 -4.271,5.922 C -4.297,-2.672 -2.725,0 0,0 m -0.811,-15.068 c 0.418,-0.026 0.837,-0.105 1.23,-0.263 2.359,-0.995 4.455,-1.756 6.971,-2.488 l 1.153,3.091 c -1.389,0.289 -2.909,0.603 -4.272,0.996 v 0.105 c 2.332,1.048 4.193,3.878 4.193,7.888 0,4.821 -2.961,8.909 -8.359,8.909 -5.268,0 -8.622,-3.983 -8.622,-9.276 0,-5.765 3.722,-8.701 7.706,-8.962" /></g><g
           transform="translate(510.8969,161.3822)"
           id="g216"><path
             id="path218"
             style="fill:#2d2c2e;fill-opacity:1;fill-rule:nonzero;stroke:none"
             d="m 0,0 c 4.613,0 7.364,2.594 7.364,8.044 v 9.907 H 3.381 V 7.783 c 0,-3.119 -1.154,-4.586 -3.25,-4.586 -2.043,0 -3.196,1.545 -3.196,4.586 v 10.168 h -4.01 V 8.097 C -7.075,2.462 -4.455,0 0,0" /></g><g
           transform="translate(146.4522,170.5238)"
           id="g220"><path
             id="path222"
             style="fill:#2d2c2e;fill-opacity:1;fill-rule:nonzero;stroke:none"
             d="m 0,0 2.657,-5.313 -16.101,-28.983 h 30.593 l 2.839,-5.677 h -35.955 l -6.15,-11.354 h -6.676 z M 12.208,22.684 50.685,-51.327 H 29.87 L 1.905,4.602 Z M -67.585,-92.186 H 89.478 V 64.876 H -67.585 Z" /></g><g
           transform="translate(157.7832,180.0666)"
           id="g224"><path
             id="path226"
             style="fill:#2d2c2e;fill-opacity:1;fill-rule:nonzero;stroke:none"
             d="m 0,0 c -1.451,0 -2.628,-1.177 -2.628,-2.628 0,-1.451 1.177,-2.628 2.628,-2.628 1.452,0 2.628,1.177 2.628,2.628 C 2.628,-1.177 1.452,0 0,0" /></g></g></g></g></svg>
