<?xml version="1.0" encoding="UTF-8" standalone="no"?>
<svg
   id="Capa_1"
   data-name="Capa 1"
   viewBox="0 0 792.57001 293.85998"
   version="1.1"
   width="792.57001"
   height="293.85999"
   xmlns="http://www.w3.org/2000/svg"
   xmlns:svg="http://www.w3.org/2000/svg">
  <defs
     id="defs1">
    <style
       id="style1">
      .cls-1 {
        fill: #fff;
        stroke: #000;
        stroke-miterlimit: 10;
        stroke-width: .25px;
      }
    </style>
  </defs>
  <path
     class="cls-1"
     d="M 98.905,108.255 V 0.125 h 35.33 v 102.91 h 57.73 V 0.125 h 35.33 v 108.13 c 0,14.87 -12.17,27.03 -27.03,27.03 h -74.33 c -14.87,0 -27.03,-12.16 -27.03,-27.03 z"
     id="path1" />
  <path
     class="cls-1"
     d="m 257.205,0.135 h 100.79 c 14.87,0 27.03,12.16 27.03,27.03 v 108.13 h -35.53 V 32.385 h -56.96 v 102.91 h -35.33 z"
     id="path2" />
  <path
     class="cls-1"
     d="m 412.035,108.255 v -81.09 c 0,-14.87 12.16,-27.03 27.03,-27.03 h 73.76 c 14.86,0 27.03,12.16 27.03,27.03 v 29.54 h -35.53 v -24.71 h -56.96 v 71.44 h 56.96 v -24.71 h 35.53 v 29.54 c 0,14.87 -12.17,27.03 -27.03,27.03 h -73.76 c -14.87,0 -27.03,-12.16 -27.03,-27.03 z"
     id="path3" />
  <path
     class="cls-1"
     d="m 564.165,108.255 v -81.09 c 0,-14.87 12.16,-27.03 27.03,-27.03 h 73.76 c 14.87,0 27.03,12.16 27.03,27.03 v 81.09 c 0,14.87 -12.16,27.03 -27.03,27.03 h -73.76 c -14.87,0 -27.03,-12.16 -27.03,-27.03 z m 92.29,-5.21 v -70.67 h -56.96 v 70.67 z"
     id="path4" />
  <path
     class="cls-1"
     d="m 0.125,185.795 c 0,-14.87 12.16,-27.22 27.03,-27.22 h 73.76 c 14.87,0 27.03,12.16 27.03,27.03 v 108.13 h -35.53 v -37.07 h -56.96 v 37.07 H 0.125 v -107.93 z m 92.29,39.58 v -34.95 h -56.96 v 34.95 z"
     id="path5" />
  <path
     class="cls-1"
     d="m 155.925,266.695 v -81.09 c 0,-14.87 12.16,-27.03 27.03,-27.03 h 73.76 c 14.87,0 27.03,12.16 27.03,27.03 v 29.54 h -35.53 v -24.71 h -56.96 v 71.44 h 56.96 v -24.71 h 35.53 v 29.54 c 0,14.87 -12.16,27.03 -27.03,27.03 h -73.76 c -14.87,0 -27.03,-12.16 -27.03,-27.03 z"
     id="path6" />
  <path
     class="cls-1"
     d="m 347.635,190.815 h -46.15 v -32.24 h 127.63 v 32.24 h -46.15 v 102.91 h -35.33 z"
     id="path7" />
  <path
     class="cls-1"
     d="m 449.755,158.575 h 36.11 v 135.16 h -36.11 z"
     id="path8" />
  <path
     class="cls-1"
     d="m 524.665,257.625 c -11.2,-11.78 -13.32,-20.85 -13.32,-35.53 v -63.52 h 35.53 v 61.98 c 0,14.29 5.6,19.7 14.48,29.73 l 13.9,12.55 14.68,-12.94 c 8.49,-9.85 13.9,-15.06 13.9,-29.35 v -61.98 h 35.33 v 63.52 c 0,14.67 -1.93,23.75 -12.55,34.95 l -34.76,36.69 h -33.21 l -33.98,-36.11 z"
     id="path9" />
  <path
     class="cls-1"
     d="m 664.625,185.795 c 0,-14.87 12.16,-27.22 27.03,-27.22 h 73.76 c 14.87,0 27.03,12.16 27.03,27.03 v 108.13 h -35.53 v -37.07 h -56.96 v 37.07 h -35.33 v -107.93 z m 92.3,39.58 v -34.95 h -56.96 v 34.95 z"
     id="path10" />
</svg>
