<?xml version="1.0" encoding="UTF-8" standalone="no"?>
<svg
   viewBox="0 0 296.382 350.125"
   height="350.125"
   width="296.38199"
   xml:space="preserve"
   id="svg2"
   version="1.1"
   sodipodi:docname="ISOLOGO_FINAL_CURVAS (1).svg"
   inkscape:version="1.1 (c68e22c387, 2021-05-23)"
   xmlns:inkscape="http://www.inkscape.org/namespaces/inkscape"
   xmlns:sodipodi="http://sodipodi.sourceforge.net/DTD/sodipodi-0.dtd"
   xmlns="http://www.w3.org/2000/svg"
   xmlns:svg="http://www.w3.org/2000/svg"
   xmlns:rdf="http://www.w3.org/1999/02/22-rdf-syntax-ns#"
   xmlns:cc="http://creativecommons.org/ns#"
   xmlns:dc="http://purl.org/dc/elements/1.1/"><sodipodi:namedview
     id="namedview153"
     pagecolor="#ffffff"
     bordercolor="#666666"
     borderopacity="1.0"
     inkscape:pageshadow="2"
     inkscape:pageopacity="0.0"
     inkscape:pagecheckerboard="0"
     showgrid="false"
     inkscape:zoom="0.9291402"
     inkscape:cx="-127.53726"
     inkscape:cy="240.54497"
     inkscape:window-width="1920"
     inkscape:window-height="1017"
     inkscape:window-x="-8"
     inkscape:window-y="-8"
     inkscape:window-maximized="1"
     inkscape:current-layer="g16"
     width="296.38199px" /><metadata
     id="metadata8"><rdf:RDF><cc:Work
         rdf:about=""><dc:format>image/svg+xml</dc:format><dc:type
           rdf:resource="http://purl.org/dc/dcmitype/StillImage" /></cc:Work></rdf:RDF></metadata><defs
     id="defs6"><clipPath
       id="clipPath22"
       clipPathUnits="userSpaceOnUse"><path
         id="path20"
         d="M 0,603.784 H 858.898 V 0 H 0 Z" /></clipPath></defs><g
     id="g16"
     transform="matrix(1.3333333,0,0,-1.3333333,0,805.04533)"><g
       id="g1519"
       transform="translate(-321.26476,173.54754)"><path
         id="path100"
         style="fill:#4a4949;fill-opacity:1;fill-rule:nonzero;stroke:none"
         d="m 324.682,179.416 h 0.957 v -5.682 h -0.957 z" /><g
         transform="translate(331.4201,176.4206)"
         id="g102"><path
           id="path104"
           style="fill:#4a4949;fill-opacity:1;fill-rule:nonzero;stroke:none"
           d="m 0,0 v -2.687 h -0.934 v 2.427 c 0,0.65 -0.389,1.048 -1.039,1.048 -0.714,-0.009 -1.16,-0.503 -1.225,-1.177 v -2.298 h -0.933 v 4.319 h 0.933 V 0.804 c 0.309,0.6 0.86,0.86 1.591,0.86 C -0.6,1.664 0,1.031 0,0" /></g><g
         transform="translate(335.685,177.6542)"
         id="g106"><path
           id="path108"
           style="fill:#4a4949;fill-opacity:1;fill-rule:nonzero;stroke:none"
           d="m 0,0 -0.342,-0.689 c -0.38,0.235 -0.86,0.381 -1.241,0.381 -0.366,0 -0.634,-0.121 -0.634,-0.431 0,-0.795 2.298,-0.364 2.289,-1.931 0,-0.885 -0.786,-1.283 -1.655,-1.283 -0.634,0 -1.308,0.211 -1.737,0.601 l 0.332,0.665 c 0.374,-0.333 0.975,-0.536 1.446,-0.536 0.397,0 0.706,0.139 0.706,0.463 0,0.885 -2.273,0.39 -2.265,1.949 0,0.876 0.763,1.25 1.591,1.25 C -0.967,0.439 -0.39,0.276 0,0" /></g><g
         transform="translate(339.3558,174.0093)"
         id="g110"><path
           id="path112"
           style="fill:#4a4949;fill-opacity:1;fill-rule:nonzero;stroke:none"
           d="m 0,0 c -0.342,-0.203 -0.699,-0.316 -1.064,-0.316 -0.649,0 -1.21,0.373 -1.21,1.258 v 2.24 h -0.608 v 0.699 h 0.608 v 1.185 h 0.927 V 3.881 h 1.274 V 3.182 H -1.347 V 1.113 c 0,-0.447 0.169,-0.585 0.462,-0.585 0.195,0 0.398,0.065 0.649,0.187 z" /></g><path
         id="path114"
         style="fill:#4a4949;fill-opacity:1;fill-rule:nonzero;stroke:none"
         d="m 340.429,178.053 h 0.925 v -4.319 h -0.925 z m 1.006,1.233 c 0,-0.325 -0.235,-0.56 -0.543,-0.56 -0.309,0 -0.545,0.235 -0.545,0.56 0,0.332 0.236,0.568 0.545,0.568 0.308,0 0.543,-0.236 0.543,-0.568" /><g
         transform="translate(345.3893,174.0093)"
         id="g116"><path
           id="path118"
           style="fill:#4a4949;fill-opacity:1;fill-rule:nonzero;stroke:none"
           d="m 0,0 c -0.342,-0.203 -0.699,-0.316 -1.064,-0.316 -0.649,0 -1.21,0.373 -1.21,1.258 v 2.24 h -0.608 v 0.699 h 0.608 v 1.185 h 0.927 V 3.881 h 1.274 V 3.182 H -1.347 V 1.113 c 0,-0.447 0.169,-0.585 0.462,-0.585 0.195,0 0.398,0.065 0.649,0.187 z" /></g><g
         transform="translate(350.3828,173.734)"
         id="g120"><path
           id="path122"
           style="fill:#4a4949;fill-opacity:1;fill-rule:nonzero;stroke:none"
           d="m 0,0 h -0.934 v 0.843 c -0.291,-0.6 -0.836,-0.868 -1.542,-0.876 -0.99,0 -1.583,0.633 -1.583,1.664 v 2.688 h 0.934 V 1.891 c 0,-0.649 0.381,-1.048 1.007,-1.048 0.747,0.017 1.184,0.593 1.184,1.349 V 4.319 H 0 Z" /></g><g
         transform="translate(354.42,174.0093)"
         id="g124"><path
           id="path126"
           style="fill:#4a4949;fill-opacity:1;fill-rule:nonzero;stroke:none"
           d="m 0,0 c -0.342,-0.203 -0.699,-0.316 -1.064,-0.316 -0.649,0 -1.21,0.373 -1.21,1.258 v 2.24 h -0.608 v 0.699 h 0.608 v 1.185 h 0.927 V 3.881 h 1.274 V 3.182 H -1.347 V 1.113 c 0,-0.447 0.169,-0.585 0.462,-0.585 0.195,0 0.398,0.065 0.649,0.187 z" /></g><g
         transform="translate(355.9724,175.8845)"
         id="g128"><path
           id="path130"
           style="fill:#4a4949;fill-opacity:1;fill-rule:nonzero;stroke:none"
           d="m 0,0 c 0,-0.836 0.543,-1.404 1.323,-1.404 0.771,0 1.315,0.568 1.315,1.404 0,0.828 -0.544,1.396 -1.315,1.396 C 0.543,1.396 0,0.828 0,0 m 3.572,0.008 c 0,-1.299 -0.918,-2.192 -2.249,-2.192 -1.34,0 -2.256,0.893 -2.256,2.192 0,1.307 0.916,2.192 2.256,2.192 1.331,0 2.249,-0.885 2.249,-2.192" /></g><g
         transform="translate(364.0519,176.3068)"
         id="g132"><path
           id="path134"
           style="fill:#4a4949;fill-opacity:1;fill-rule:nonzero;stroke:none"
           d="m 0,0 h 1.267 c 0.876,0 1.371,0.374 1.371,1.145 0,0.747 -0.495,1.104 -1.371,1.104 H 0 Z m 1.307,3.109 c 1.429,0 2.249,-0.706 2.249,-1.94 0,-1.283 -0.82,-2.029 -2.249,-2.029 H 0 v -1.713 h -0.957 v 5.682 z" /></g><g
         transform="translate(369.6487,177.1916)"
         id="g136"><path
           id="path138"
           style="fill:#4a4949;fill-opacity:1;fill-rule:nonzero;stroke:none"
           d="M 0,0 C 0.292,0.585 0.811,0.893 1.493,0.893 V 0 C 0.625,0.049 0.072,-0.463 0,-1.202 V -3.458 H -0.933 V 0.861 H 0 Z" /></g><g
         transform="translate(372.6531,175.8845)"
         id="g140"><path
           id="path142"
           style="fill:#4a4949;fill-opacity:1;fill-rule:nonzero;stroke:none"
           d="m 0,0 c 0,-0.836 0.543,-1.404 1.323,-1.404 0.771,0 1.315,0.568 1.315,1.404 0,0.828 -0.544,1.396 -1.315,1.396 C 0.543,1.396 0,0.828 0,0 m 3.571,0.008 c 0,-1.299 -0.917,-2.192 -2.248,-2.192 -1.34,0 -2.257,0.893 -2.257,2.192 0,1.307 0.917,2.192 2.257,2.192 1.331,0 2.248,-0.885 2.248,-2.192" /></g><g
         transform="translate(378.2405,173.734)"
         id="g144"><path
           id="path146"
           style="fill:#4a4949;fill-opacity:1;fill-rule:nonzero;stroke:none"
           d="m 0,0 -1.672,4.319 h 0.973 L 0.503,0.917 1.688,4.319 H 2.621 L 0.966,0 Z" /></g><path
         id="path148"
         style="fill:#4a4949;fill-opacity:1;fill-rule:nonzero;stroke:none"
         d="m 381.725,178.053 h 0.925 v -4.319 h -0.925 z m 1.006,1.233 c 0,-0.325 -0.235,-0.56 -0.543,-0.56 -0.309,0 -0.545,0.235 -0.545,0.56 0,0.332 0.236,0.568 0.545,0.568 0.308,0 0.543,-0.236 0.543,-0.568" /><g
         transform="translate(388.3744,176.4206)"
         id="g150"><path
           id="path152"
           style="fill:#4a4949;fill-opacity:1;fill-rule:nonzero;stroke:none"
           d="m 0,0 v -2.687 h -0.933 v 2.427 c 0,0.65 -0.39,1.048 -1.04,1.048 -0.714,-0.009 -1.161,-0.503 -1.225,-1.177 v -2.298 h -0.933 v 4.319 h 0.933 V 0.804 c 0.309,0.6 0.86,0.86 1.591,0.86 C -0.6,1.664 0,1.031 0,0" /></g><g
         transform="translate(393.3927,177.3789)"
         id="g154"><path
           id="path156"
           style="fill:#4a4949;fill-opacity:1;fill-rule:nonzero;stroke:none"
           d="m 0,0 -0.511,-0.601 c -0.3,0.308 -0.714,0.495 -1.234,0.487 -0.747,0 -1.282,-0.56 -1.282,-1.38 0,-0.82 0.535,-1.38 1.282,-1.38 0.543,0 0.982,0.178 1.274,0.52 l 0.52,-0.52 c -0.389,-0.511 -1.015,-0.804 -1.834,-0.804 -1.284,0 -2.176,0.885 -2.176,2.184 0,1.307 0.892,2.2 2.176,2.2 C -1.006,0.706 -0.397,0.454 0,0" /></g><path
         id="path158"
         style="fill:#4a4949;fill-opacity:1;fill-rule:nonzero;stroke:none"
         d="m 394.629,178.053 h 0.925 v -4.319 h -0.925 z m 1.006,1.233 c 0,-0.325 -0.235,-0.56 -0.543,-0.56 -0.308,0 -0.544,0.235 -0.544,0.56 0,0.332 0.236,0.568 0.544,0.568 0.308,0 0.543,-0.236 0.543,-0.568" /><g
         transform="translate(399.7284,175.2522)"
         id="g160"><path
           id="path162"
           style="fill:#4a4949;fill-opacity:1;fill-rule:nonzero;stroke:none"
           d="m 0,0 v 0.397 h -1.168 c -0.61,0 -0.894,-0.162 -0.894,-0.576 0,-0.39 0.317,-0.642 0.837,-0.642 0.665,0 1.176,0.35 1.225,0.821 m 0.008,-0.99 c -0.308,-0.382 -0.804,-0.569 -1.429,-0.569 -0.933,0 -1.517,0.576 -1.517,1.34 0,0.787 0.592,1.29 1.631,1.298 H 0 v 0.13 c 0,0.544 -0.349,0.869 -1.031,0.869 -0.414,0 -0.844,-0.147 -1.275,-0.439 l -0.381,0.649 c 0.601,0.358 1.039,0.545 1.859,0.545 1.113,0 1.738,-0.569 1.745,-1.519 L 0.925,-1.518 H 0.008 Z" /></g><path
         id="path164"
         style="fill:#4a4949;fill-opacity:1;fill-rule:nonzero;stroke:none"
         d="m 402.157,179.757 h 0.934 v -6.023 h -0.934 z" /><g
         transform="translate(410.2121,175.8762)"
         id="g166"><path
           id="path168"
           style="fill:#4a4949;fill-opacity:1;fill-rule:nonzero;stroke:none"
           d="M 0,0 C 0,0.836 -0.543,1.421 -1.323,1.421 -2.102,1.421 -2.646,0.829 -2.654,0 -2.646,-0.82 -2.11,-1.403 -1.323,-1.403 -0.543,-1.403 0,-0.82 0,0 M 0.935,-2.142 H 0 v 0.739 c -0.308,-0.504 -0.828,-0.78 -1.517,-0.78 -1.242,0 -2.07,0.901 -2.07,2.216 0,1.299 0.835,2.184 2.053,2.184 0.699,0 1.218,-0.285 1.534,-0.788 v 2.452 h 0.935 z" /></g><g
         transform="translate(415.7675,176.2178)"
         id="g170"><path
           id="path172"
           style="fill:#4a4949;fill-opacity:1;fill-rule:nonzero;stroke:none"
           d="M 0,0 C -0.032,0.698 -0.495,1.12 -1.202,1.12 -1.884,1.12 -2.362,0.69 -2.467,0 Z m 0.812,-0.682 h -3.264 c 0.147,-0.665 0.658,-1.079 1.34,-1.079 0.471,0 0.901,0.178 1.218,0.503 l 0.495,-0.528 c -0.422,-0.463 -1.039,-0.731 -1.786,-0.731 -1.331,0 -2.207,0.885 -2.207,2.184 0,1.307 0.9,2.192 2.182,2.2 1.518,0 2.135,-0.99 2.022,-2.549" /></g><g
         transform="translate(422.809,175.4871)"
         id="g174"><path
           id="path176"
           style="fill:#4a4949;fill-opacity:1;fill-rule:nonzero;stroke:none"
           d="m 0,0 c 0,-1.145 -0.674,-1.794 -1.77,-1.794 -0.682,0 -1.25,0.301 -1.672,0.82 l 0.455,0.731 c 0.373,-0.407 0.82,-0.625 1.209,-0.625 0.511,0 0.812,0.316 0.812,0.9 v 3.037 h -1.965 v 0.86 H 0 Z" /></g><g
         transform="translate(428.2568,173.734)"
         id="g178"><path
           id="path180"
           style="fill:#4a4949;fill-opacity:1;fill-rule:nonzero;stroke:none"
           d="m 0,0 h -0.933 v 0.843 c -0.292,-0.6 -0.837,-0.868 -1.542,-0.876 -0.991,0 -1.584,0.633 -1.584,1.664 v 2.688 h 0.934 V 1.891 c 0,-0.649 0.381,-1.048 1.007,-1.048 0.747,0.017 1.185,0.593 1.185,1.349 V 4.319 H 0 Z" /></g><g
         transform="translate(432.8383,176.2178)"
         id="g182"><path
           id="path184"
           style="fill:#4a4949;fill-opacity:1;fill-rule:nonzero;stroke:none"
           d="M 0,0 C -0.032,0.698 -0.495,1.12 -1.202,1.12 -1.884,1.12 -2.362,0.69 -2.467,0 Z m 0.812,-0.682 h -3.264 c 0.147,-0.665 0.658,-1.079 1.34,-1.079 0.471,0 0.901,0.178 1.218,0.503 l 0.495,-0.528 c -0.422,-0.463 -1.039,-0.731 -1.786,-0.731 -1.331,0 -2.207,0.885 -2.207,2.184 0,1.307 0.9,2.192 2.183,2.2 1.517,0 2.134,-0.99 2.021,-2.549" /></g><g
         transform="translate(437.809,176.0066)"
         id="g186"><path
           id="path188"
           style="fill:#4a4949;fill-opacity:1;fill-rule:nonzero;stroke:none"
           d="M 0,0 C 0,0.779 -0.512,1.324 -1.243,1.324 -1.981,1.324 -2.493,0.771 -2.5,0 -2.493,-0.779 -1.989,-1.331 -1.243,-1.331 -0.512,-1.331 0,-0.779 0,0 m 0.925,-1.85 c 0,-1.242 -0.885,-2.022 -2.24,-2.022 -0.674,0 -1.267,0.21 -1.795,0.569 l 0.399,0.673 c 0.405,-0.301 0.827,-0.471 1.355,-0.471 0.82,0 1.356,0.479 1.356,1.226 v 0.544 c -0.293,-0.471 -0.779,-0.731 -1.429,-0.731 -1.169,0 -1.948,0.844 -1.948,2.087 0,1.217 0.771,2.045 1.916,2.053 0.665,0.008 1.16,-0.26 1.461,-0.731 v 0.699 h 0.925 z" /></g><g
         transform="translate(440.774,175.8845)"
         id="g190"><path
           id="path192"
           style="fill:#4a4949;fill-opacity:1;fill-rule:nonzero;stroke:none"
           d="m 0,0 c 0,-0.836 0.543,-1.404 1.323,-1.404 0.771,0 1.315,0.568 1.315,1.404 0,0.828 -0.544,1.396 -1.315,1.396 C 0.543,1.396 0,0.828 0,0 m 3.571,0.008 c 0,-1.299 -0.917,-2.192 -2.248,-2.192 -1.34,0 -2.257,0.893 -2.257,2.192 0,1.307 0.917,2.192 2.257,2.192 1.331,0 2.248,-0.885 2.248,-2.192" /></g><g
         transform="translate(448.3341,177.6542)"
         id="g194"><path
           id="path196"
           style="fill:#4a4949;fill-opacity:1;fill-rule:nonzero;stroke:none"
           d="m 0,0 -0.342,-0.689 c -0.38,0.235 -0.86,0.381 -1.241,0.381 -0.366,0 -0.634,-0.121 -0.634,-0.431 0,-0.795 2.298,-0.364 2.289,-1.931 0,-0.885 -0.786,-1.283 -1.655,-1.283 -0.634,0 -1.308,0.211 -1.737,0.601 l 0.332,0.665 c 0.374,-0.333 0.975,-0.536 1.445,-0.536 0.398,0 0.707,0.139 0.707,0.463 0,0.885 -2.273,0.39 -2.266,1.949 0,0.876 0.764,1.25 1.592,1.25 C -0.967,0.439 -0.39,0.276 0,0" /></g><g
         transform="translate(455.0496,175.8762)"
         id="g198"><path
           id="path200"
           style="fill:#4a4949;fill-opacity:1;fill-rule:nonzero;stroke:none"
           d="M 0,0 C 0,0.836 -0.543,1.421 -1.323,1.421 -2.102,1.421 -2.646,0.829 -2.654,0 -2.646,-0.82 -2.11,-1.403 -1.323,-1.403 -0.543,-1.403 0,-0.82 0,0 M 0.933,-2.142 H 0 v 0.739 c -0.308,-0.504 -0.828,-0.78 -1.517,-0.78 -1.242,0 -2.07,0.901 -2.07,2.216 0,1.299 0.835,2.184 2.053,2.184 0.699,0 1.218,-0.285 1.534,-0.788 v 2.452 h 0.933 z" /></g><g
         transform="translate(460.604,176.2178)"
         id="g202"><path
           id="path204"
           style="fill:#4a4949;fill-opacity:1;fill-rule:nonzero;stroke:none"
           d="M 0,0 C -0.032,0.698 -0.495,1.12 -1.202,1.12 -1.884,1.12 -2.362,0.69 -2.467,0 Z m 0.812,-0.682 h -3.264 c 0.147,-0.665 0.659,-1.079 1.341,-1.079 0.47,0 0.9,0.178 1.217,0.503 l 0.495,-0.528 c -0.422,-0.463 -1.039,-0.731 -1.786,-0.731 -1.331,0 -2.207,0.885 -2.207,2.184 0,1.307 0.9,2.192 2.182,2.2 1.518,0 2.135,-0.99 2.022,-2.549" /></g><g
         transform="translate(467.1995,178.3931)"
         id="g206"><path
           id="path208"
           style="fill:#4a4949;fill-opacity:1;fill-rule:nonzero;stroke:none"
           d="m 0,0 -1.072,-2.524 h 2.143 z m -1.429,-3.377 -0.544,-1.282 h -0.998 l 2.508,5.681 H 0.52 L 3.003,-4.659 H 1.981 l -0.545,1.282 z" /></g><g
         transform="translate(471.9425,174.4967)"
         id="g210"><path
           id="path212"
           style="fill:#4a4949;fill-opacity:1;fill-rule:nonzero;stroke:none"
           d="m 0,0 2.541,-0.008 v -0.763 l -3.694,0.008 v 0.634 L 1.314,2.792 H -1.079 V 3.556 L 2.467,3.548 V 2.923 Z" /></g><g
         transform="translate(478.1871,175.2522)"
         id="g214"><path
           id="path216"
           style="fill:#4a4949;fill-opacity:1;fill-rule:nonzero;stroke:none"
           d="m 0,0 v 0.397 h -1.168 c -0.61,0 -0.894,-0.162 -0.894,-0.576 0,-0.39 0.317,-0.642 0.837,-0.642 0.665,0 1.176,0.35 1.225,0.821 m 0.008,-0.99 c -0.308,-0.382 -0.804,-0.569 -1.429,-0.569 -0.933,0 -1.517,0.576 -1.517,1.34 0,0.787 0.592,1.29 1.631,1.298 H 0 v 0.13 c 0,0.544 -0.349,0.869 -1.031,0.869 -0.414,0 -0.844,-0.147 -1.275,-0.439 l -0.381,0.649 c 0.601,0.358 1.039,0.545 1.859,0.545 1.113,0 1.738,-0.569 1.745,-1.519 L 0.925,-1.518 H 0.008 Z" /></g><g
         transform="translate(481.5092,177.1916)"
         id="g218"><path
           id="path220"
           style="fill:#4a4949;fill-opacity:1;fill-rule:nonzero;stroke:none"
           d="M 0,0 C 0.292,0.585 0.811,0.893 1.493,0.893 V 0 C 0.625,0.049 0.072,-0.463 0,-1.202 V -3.458 H -0.933 V 0.861 H 0 Z" /></g><g
         transform="translate(489.4749,175.8762)"
         id="g222"><path
           id="path224"
           style="fill:#4a4949;fill-opacity:1;fill-rule:nonzero;stroke:none"
           d="M 0,0 C 0,0.836 -0.543,1.421 -1.323,1.421 -2.102,1.421 -2.646,0.829 -2.654,0 -2.646,-0.82 -2.11,-1.403 -1.323,-1.403 -0.543,-1.403 0,-0.82 0,0 M 0.933,-2.142 H 0 v 0.739 c -0.308,-0.504 -0.828,-0.78 -1.517,-0.78 -1.242,0 -2.07,0.901 -2.07,2.216 0,1.299 0.835,2.184 2.053,2.184 0.699,0 1.218,-0.285 1.534,-0.788 v 2.452 h 0.933 z" /></g><g
         transform="translate(495.0303,176.2178)"
         id="g226"><path
           id="path228"
           style="fill:#4a4949;fill-opacity:1;fill-rule:nonzero;stroke:none"
           d="M 0,0 C -0.032,0.698 -0.495,1.12 -1.202,1.12 -1.884,1.12 -2.362,0.69 -2.467,0 Z m 0.812,-0.682 h -3.264 c 0.147,-0.665 0.659,-1.079 1.341,-1.079 0.47,0 0.9,0.178 1.217,0.503 l 0.495,-0.528 c -0.422,-0.463 -1.039,-0.731 -1.786,-0.731 -1.331,0 -2.207,0.885 -2.207,2.184 0,1.307 0.9,2.192 2.183,2.2 1.517,0 2.134,-0.99 2.021,-2.549" /></g><path
         id="path230"
         style="fill:#4a4949;fill-opacity:1;fill-rule:nonzero;stroke:none"
         d="m 497.07,179.757 h 0.933 v -6.023 h -0.933 z" /><g
         transform="translate(505.9849,173.734)"
         id="g232"><path
           id="path234"
           style="fill:#4a4949;fill-opacity:1;fill-rule:nonzero;stroke:none"
           d="M 0,0 -3.028,4.074 V 0 h -0.957 v 5.682 h 0.941 L 0,1.599 V 5.682 H 0.942 V 0 Z" /></g><g
         transform="translate(511.5734,176.2178)"
         id="g236"><path
           id="path238"
           style="fill:#4a4949;fill-opacity:1;fill-rule:nonzero;stroke:none"
           d="M 0,0 C -0.032,0.698 -0.495,1.12 -1.202,1.12 -1.884,1.12 -2.362,0.69 -2.467,0 Z m 0.812,-0.682 h -3.264 c 0.147,-0.665 0.659,-1.079 1.341,-1.079 0.47,0 0.9,0.178 1.217,0.503 l 0.495,-0.528 c -0.422,-0.463 -1.039,-0.731 -1.786,-0.731 -1.331,0 -2.207,0.885 -2.207,2.184 0,1.307 0.9,2.192 2.182,2.2 1.518,0 2.135,-0.99 2.022,-2.549" /></g><g
         transform="translate(517.493,173.734)"
         id="g240"><path
           id="path242"
           style="fill:#4a4949;fill-opacity:1;fill-rule:nonzero;stroke:none"
           d="m 0,0 h -0.933 v 0.843 c -0.292,-0.6 -0.837,-0.868 -1.542,-0.876 -0.991,0 -1.584,0.633 -1.584,1.664 v 2.688 h 0.934 V 1.891 c 0,-0.649 0.381,-1.048 1.007,-1.048 0.747,0.017 1.185,0.593 1.185,1.349 V 4.319 H 0 Z" /></g><g
         transform="translate(522.2681,175.8762)"
         id="g244"><path
           id="path246"
           style="fill:#4a4949;fill-opacity:1;fill-rule:nonzero;stroke:none"
           d="M 0,0 C 0,0.836 -0.543,1.421 -1.323,1.421 -2.102,1.421 -2.646,0.829 -2.654,0 -2.646,-0.82 -2.11,-1.403 -1.323,-1.403 -0.543,-1.403 0,-0.82 0,0 M 0.935,-3.717 H 0 v 2.314 c -0.308,-0.504 -0.828,-0.78 -1.517,-0.78 -1.242,0 -2.07,0.901 -2.07,2.216 0,1.299 0.835,2.184 2.053,2.184 0.699,0 1.218,-0.285 1.534,-0.788 v 0.747 h 0.935 z" /></g><g
         transform="translate(528.757,173.734)"
         id="g248"><path
           id="path250"
           style="fill:#4a4949;fill-opacity:1;fill-rule:nonzero;stroke:none"
           d="m 0,0 h -0.933 v 0.843 c -0.292,-0.6 -0.837,-0.868 -1.542,-0.876 -0.991,0 -1.584,0.633 -1.584,1.664 v 2.688 h 0.934 V 1.891 c 0,-0.649 0.381,-1.048 1.007,-1.048 0.747,0.017 1.185,0.593 1.185,1.349 V 4.319 H 0 Z" /></g><g
         transform="translate(531.5358,178.6695)"
         id="g252"><path
           id="path254"
           style="fill:#4a4949;fill-opacity:1;fill-rule:nonzero;stroke:none"
           d="M 0,0 0.86,1.202 1.818,0.795 0.828,0 Z m 1.802,-2.452 c -0.032,0.698 -0.495,1.12 -1.202,1.12 -0.682,0 -1.16,-0.429 -1.265,-1.12 z M 2.614,-3.134 H -0.65 c 0.147,-0.665 0.658,-1.079 1.34,-1.079 0.471,0 0.901,0.178 1.217,0.503 L 2.403,-4.238 C 1.981,-4.701 1.364,-4.969 0.617,-4.969 c -1.331,0 -2.208,0.885 -2.208,2.184 0,1.307 0.901,2.192 2.183,2.2 1.518,0 2.135,-0.99 2.022,-2.549" /></g><g
         transform="translate(539.4684,176.4206)"
         id="g256"><path
           id="path258"
           style="fill:#4a4949;fill-opacity:1;fill-rule:nonzero;stroke:none"
           d="m 0,0 v -2.687 h -0.933 v 2.427 c 0,0.65 -0.39,1.048 -1.04,1.048 -0.714,-0.009 -1.16,-0.503 -1.225,-1.177 v -2.298 h -0.933 v 4.319 h 0.933 V 0.804 c 0.309,0.6 0.86,0.86 1.591,0.86 C -0.6,1.664 0,1.031 0,0" /></g><g
         transform="translate(436.3981,412.3604)"
         id="g260"><path
           id="path262"
           style="fill:#c6d43f;fill-opacity:1;fill-rule:nonzero;stroke:none"
           d="m 0,0 -17.535,10.937 c -0.478,0.299 -1.05,0.223 -1.451,-0.193 -0.408,-0.423 -0.606,-1.131 -0.518,-1.847 l 1.209,-5.864 c -0.89,-0.128 -1.731,-0.281 -2.416,-0.435 -11.808,-2.672 -19.133,-9.497 -20.142,-10.468 0.041,-0.982 -0.111,-11.032 0.009,-16.406 0.03,0.026 5.611,3.687 10.961,6.417 2.955,1.509 6.453,3.003 10.444,4.19 0.27,0.068 1.36,0.329 2.666,0.53 l 0.601,-4.851 c 0.088,-0.715 0.45,-1.332 0.943,-1.61 0.234,-0.131 0.487,-0.18 0.732,-0.141 0.263,0.043 0.508,0.184 0.708,0.41 L 0.415,-3.382 c 0.378,0.425 0.56,1.114 0.476,1.8 C 0.807,-0.897 0.466,-0.291 0,0" /></g><g
         transform="translate(407.5362,393.5002)"
         id="g264"><path
           id="path266"
           style="fill:#4a4949;fill-opacity:1;fill-rule:nonzero;stroke:none"
           d="m 0,0 c -5.285,-2.664 -7.891,-4.077 -11.41,-6.387 2.472,-2.202 7.483,-5.436 12.214,-6.673 11.367,3.466 24.54,4.694 26.558,4.689 C 16.793,-7.665 7.428,-5.028 0,0" /></g><g
         transform="translate(463.7009,383.7696)"
         id="g268"><path
           id="path270"
           style="fill:#c6d43f;fill-opacity:1;fill-rule:nonzero;stroke:none"
           d="m 0,0 c -0.227,0.456 -0.399,0.51 -0.401,0.511 -6.614,0.435 -12.4,0.313 -16.389,0.313 -11.237,0 -21.997,-1.196 -32.511,-3.626 -6.368,-1.473 -12.645,-3.397 -18.883,-5.786 0.019,-1.611 0.012,-11.334 0.055,-18.183 0.163,0.065 12.01,3.875 17.711,5.131 12.539,2.764 24.619,3.462 33.773,3.486 7.682,0.02 9.776,0.074 16.888,-0.795 C 0.915,-16.764 1.703,-3.424 0,0" /></g><g
         transform="translate(432.0857,352.2689)"
         id="g272"><path
           id="path274"
           style="fill:#4a4949;fill-opacity:1;fill-rule:nonzero;stroke:none"
           d="m 0,0 c -10.18,1.848 -16.817,4.023 -22.175,7.828 -6.466,-1.631 -8.11,-2.365 -13.444,-4.24 3.507,-3.384 6.381,-5.667 9.791,-7.216 C -16.805,-1.468 -7.854,-0.204 0,0" /></g><g
         transform="translate(429.8207,322.5073)"
         id="g276"><path
           id="path278"
           style="fill:#4a4949;fill-opacity:1;fill-rule:nonzero;stroke:none"
           d="M 0,0 C -7.526,0.87 -15.429,3.506 -21.079,7.42 -25.171,6.442 -29.798,5.096 -33.719,3.547 -31.43,0.53 -29.38,-1.869 -26.084,-4.226 -17.414,-1.576 -8.208,-0.109 0,0" /></g><g
         transform="translate(461.3113,351.8517)"
         id="g280"><path
           id="path282"
           style="fill:#c6d43f;fill-opacity:1;fill-rule:nonzero;stroke:none"
           d="m 0,0 c -0.133,0.011 -0.264,0.019 -0.397,0.03 -6.692,0.558 -5.367,0.456 -11.834,0.456 -10.389,0 -20.556,-0.747 -30.189,-2.188 -7.938,-1.188 -16.309,-3.058 -23.338,-5.17 0,-6.624 -0.068,-17.713 -0.024,-17.798 7.631,2.56 15.49,4.523 22.523,5.778 13.785,2.46 26.032,2.887 35.148,2.859 1.572,-0.005 1.827,-0.013 1.827,-0.013 C -2.557,-13.703 0.84,-1.959 0,0" /></g><g
         transform="translate(436.9804,321.8631)"
         id="g284"><path
           id="path286"
           style="fill:#c6d43f;fill-opacity:1;fill-rule:nonzero;stroke:none"
           d="m 0,0 c -7.891,-0.056 -15.611,-0.793 -22.941,-2.164 -6.29,-1.177 -12.953,-3.059 -18.522,-5.151 0,-6.571 -0.008,-17.386 0.027,-17.469 6.046,2.535 20.208,8.177 28.894,9.401 5.54,0.781 7.539,5.081 8.524,8.025 C -2.508,-2.848 0,0 0,0" /></g><g
         transform="translate(396.2064,295.8695)"
         id="g288"><path
           id="path290"
           style="fill:#4a4949;fill-opacity:1;fill-rule:nonzero;stroke:none"
           d="m 0,0 c 0,0 9.806,4.446 17.22,6.481 0,0 -0.664,-7.285 0.669,-14.202 L 10.223,-9.304 C 5.306,-6.388 0,0 0,0" /></g><path
         id="path292"
         style="fill:#4a4949;fill-opacity:1;fill-rule:nonzero;stroke:none"
         d="m 325.175,188.066 h 13.802 v 80.032 h -13.802 z" /><g
         transform="translate(361.833,268.0977)"
         id="g294"><path
           id="path296"
           style="fill:#4a4949;fill-opacity:1;fill-rule:nonzero;stroke:none"
           d="m 0,0 v -12.384 h 19.421 v -43.889 c 0,-10.957 -7.345,-12.14 -10.502,-12.14 -3.223,0 -10.72,1.225 -10.72,12.576 v 4.773 h -13.693 v -5.319 c 0,-17.241 12.207,-24.959 24.305,-24.959 12.151,0 24.413,7.718 24.413,24.959 V 0 Z" /></g><g
         transform="translate(433.5615,250.3956)"
         id="g298"><path
           id="path300"
           style="fill:#4a4949;fill-opacity:1;fill-rule:nonzero;stroke:none"
           d="m 0,0 c 0.518,-1.97 1.119,-4.126 1.672,-5.786 l 7.817,-22.447 h -19.12 l 7.924,22.465 C -1.157,-4.117 -0.539,-1.965 0,0 M 6.763,17.701 H -6.694 L -35.487,-62.33 h 14.332 l 7.637,22.149 h 26.89 l 7.747,-22.149 h 14.437 z" /></g><g
         transform="translate(524.29,268.0977)"
         id="g302"><path
           id="path304"
           style="fill:#4a4949;fill-opacity:1;fill-rule:nonzero;stroke:none"
           d="m 0,0 v -51.582 c 0,-1.372 0.076,-2.994 0.18,-4.574 -1.059,1.853 -2.245,3.83 -3.334,5.421 L -37.862,0 h -12.984 v -80.032 h 13.802 v 51.472 c 0,1.411 -0.076,3.059 -0.181,4.659 1.06,-1.87 2.246,-3.872 3.337,-5.508 L 0.929,-80.032 H 13.802 V 0 Z" /></g></g></g></svg>
