<?xml version="1.0" encoding="UTF-8" standalone="no"?>
<svg
   viewBox="0 0 820 120"
   height="120"
   width="820"
   xml:space="preserve"
   id="svg2"
   version="1.1"
   sodipodi:docname="logo-deporte-y-gob.svg"
   inkscape:version="1.1 (c68e22c387, 2021-05-23)"
   xmlns:inkscape="http://www.inkscape.org/namespaces/inkscape"
   xmlns:sodipodi="http://sodipodi.sourceforge.net/DTD/sodipodi-0.dtd"
   xmlns="http://www.w3.org/2000/svg"
   xmlns:svg="http://www.w3.org/2000/svg"
   xmlns:rdf="http://www.w3.org/1999/02/22-rdf-syntax-ns#"
   xmlns:cc="http://creativecommons.org/ns#"
   xmlns:dc="http://purl.org/dc/elements/1.1/"><sodipodi:namedview
     id="namedview33"
     pagecolor="#ffffff"
     bordercolor="#666666"
     borderopacity="1.0"
     inkscape:pageshadow="2"
     inkscape:pageopacity="0.0"
     inkscape:pagecheckerboard="0"
     showgrid="false"
     inkscape:zoom="0.94242061"
     inkscape:cx="346.44828"
     inkscape:cy="174.55051"
     inkscape:window-width="1920"
     inkscape:window-height="1017"
     inkscape:window-x="-8"
     inkscape:window-y="-8"
     inkscape:window-maximized="1"
     inkscape:current-layer="svg2" /><metadata
     id="metadata8"><rdf:RDF><cc:Work
         rdf:about=""><dc:format>image/svg+xml</dc:format><dc:type
           rdf:resource="http://purl.org/dc/dcmitype/StillImage" /></cc:Work></rdf:RDF></metadata><defs
     id="defs6" /><g
     id="g1050"
     transform="translate(-139.00375,-120.9651)"><path
       id="path12"
       style="fill:#f58735;fill-opacity:1;fill-rule:nonzero;stroke:none;stroke-width:1.33333"
       d="m 225.16986,170.07202 c -0.19987,2.9484 -2.90147,5.16586 -6.03253,4.95266 -3.1324,-0.2132 -5.50747,-2.77613 -5.3068,-5.72493 0.20066,-2.948 2.90226,-5.16547 6.03333,-4.95227 3.1316,0.2132 5.50747,2.77574 5.306,5.72454" /><path
       id="path14"
       style="fill:#3f4096;fill-opacity:1;fill-rule:nonzero;stroke:none;stroke-width:1.33333"
       d="m 196.44213,127.67588 c 24.90253,31.036 -14.67827,62.86374 41.41906,92.44493 -47.54493,-18.6108 -52.15679,-39.58293 -91.11039,-2.5376 27.9428,-48.12386 52.86613,-37.05333 49.69133,-89.90733" /><path
       id="path16"
       style="fill:#f58735;fill-opacity:1;fill-rule:nonzero;stroke:none;stroke-width:1.33333"
       d="m 193.1052,134.57428 c 29.06293,21.54974 -1.49067,60.18027 49.51399,77.13107 -46.54599,-6.31707 -54.95173,-26.6608 -81.58293,12.9732 14.36294,-46.89707 46.5316,-45.45747 32.06894,-90.10427" /><path
       id="path18"
       style="fill:#028910;fill-opacity:1;fill-rule:nonzero;stroke:none;stroke-width:1.33333"
       d="m 191.68293,146.39775 c 25.43693,16.36307 3.88227,49.906 51.51,57.7932 -38.81694,-2.044 -49.3848,-17.67533 -68.6472,18.21466 8.64987,-41.22559 32.1068,-38.79733 17.1372,-76.00786" /><g
       id="g20"
       transform="matrix(1.3333333,0,0,-1.3333333,0,793.7008)"><path
         id="path22"
         style="fill:#0a4478;fill-opacity:1;fill-rule:evenodd;stroke:none"
         d="m 554.0131,452.5449 v 26.735 h -7.6025 v -13.729 l -10.0245,13.729 h -30.287 v -15.9097 c 0,-2.6663 -2.2071,-4.3481 -4.2682,-4.3481 -2.1002,0 -3.9081,1.717 -3.9081,4.3481 v 15.9097 h -7.7885 v -15.408 c 0,-7.0926 4.8867,-11.7091 12.2721,-11.7091 1.4972,0 2.7739,0 4.3608,0.2739 l 20.9914,-0.1177 v 6.3125 h -13.6131 v 3.9444 h 11.9727 v 6.3374 h -11.9727 v 3.6542 h 15.2155 v -20.2731 h 7.6394 v 13.905 L 546.99,452.5449 Z M 397.9536,439.5756 h 3.0552 c 1.2382,0 2.1997,-0.4723 2.1997,-1.9602 0,-1.5851 -0.9153,-2.107 -2.2626,-2.107 h -2.9923 z m 0,-5.423 h 3.5031 c 2.4196,0 3.3021,1.8479 3.3021,3.4787 0,1.8944 -1.241,3.2993 -3.3021,3.2993 h -5.008 v -11.7253 h 1.5049 z m 19.8,0.0825 h 3.6426 c 1.7974,0 1.9842,-1.1276 1.9842,-2.0914 0,-0.4408 0.0471,-2.2209 0.2619,-2.9384 h 1.8462 v 0.26 c -0.4657,0.2766 -0.5436,0.5232 -0.5573,1.1758 l -0.0952,2.124 c -0.0624,1.6341 -0.6951,1.927 -1.3311,2.2033 0.7151,0.4431 1.5502,1.0803 1.5502,2.8114 0,2.4818 -1.8275,3.1508 -3.6589,3.1508 h -5.1478 v -11.7253 h 1.5052 z m 0,5.3405 h 3.752 c 0.7429,0 1.9993,-0.1468 1.9993,-1.9602 0,-1.7311 -1.1628,-2.0245 -2.2644,-2.0245 h -3.4869 z m 27.3487,-4.5085 c 0,-2.7578 -1.4562,-4.767 -3.8767,-4.767 -2.4176,0 -3.8735,2.0092 -3.8735,4.767 0,2.7604 1.4559,4.7696 3.8735,4.7696 2.4205,0 3.8767,-2.0092 3.8767,-4.7696 z m 1.5483,0 c 0,2.533 -1.2714,6.1761 -5.425,6.1761 -4.1541,0 -5.4235,-3.6431 -5.4235,-6.1761 0,-2.5302 1.2694,-6.1725 5.4235,-6.1725 4.1536,0 5.425,3.6423 5.425,6.1725 z m 14.4536,-4.1298 h -0.0315 l -3.1782,9.9933 h -1.6725 l 4.0604,-11.7253 h 1.5953 l 4.0601,11.7253 h -1.6889 z m 17.4892,9.9933 h -1.505 v -11.7253 h 1.505 z m 19.3796,-9.4723 h -0.0287 l -5.5661,9.4723 h -1.7815 v -11.7253 h 1.4556 v 9.4711 h 0.0308 l 5.6591,-9.4711 h 1.6898 v 11.7253 h -1.459 z m 22.515,5.946 c -0.2177,1.9595 -1.7045,3.8389 -4.5734,3.8389 -3.2409,0 -5.1954,-2.4999 -5.1954,-6.1121 0,-4.5045 2.4815,-6.2365 5.0103,-6.2365 0.8362,0 4.2457,0.1956 4.8642,4.6225 h -1.4553 c -0.5096,-2.7289 -2.2019,-3.217 -3.1773,-3.217 -2.7604,0 -3.6902,2.1214 -3.6902,4.8824 0,3.0846 1.6294,4.6542 3.6437,4.6542 1.0692,0 2.6977,-0.3742 3.1147,-2.4324 z m 13.0884,3.5263 h -1.5049 v -11.7253 h 1.5049 z m 18.2169,-8.3126 1.0984,-3.4127 h 1.6472 l -4.0306,11.7253 h -1.7067 l -4.1854,-11.7253 h 1.5486 l 1.1653,3.4127 z m -4.0026,1.404 1.7847,5.1633 h 0.0309 l 1.6433,-5.1633 z m -59.7733,19.9726 c -1.4468,-1.1067 -3.0401,-1.8318 -4.0549,-1.8318 -0.8297,0 -1.556,0.4969 -2.1008,1.2586 4.7795,2.0985 7.8582,6.7513 7.8582,12.5093 0,7.8945 -5.8671,13.6171 -13.9388,13.6171 -8.0719,0 -13.9365,-5.6829 -13.9365,-13.6171 0,-7.6277 5.3943,-13.271 12.9243,-13.7296 1.339,-3.8905 4.4501,-6.4083 8.287,-6.4083 2.645,0 5.7932,1.1843 7.7485,2.9755 z m -18.1261,11.7802 c 0,4.0507 2.7657,6.9642 6.0111,6.9642 3.2063,0 5.7708,-2.9135 5.7708,-6.9642 0,-4.0564 -2.5645,-7.0546 -5.7708,-7.0546 -3.2068,0 -6.0111,2.9982 -6.0111,7.0546 z m -55.7734,13.5051 v -14.7302 l -10.5928,14.7288 -6.694,10e-4 v -26.735 h 7.0379 v 14.4539 l 10.8283,-14.4539 h 21.3307 v 5.9602 h -13.5139 v 4.0708 h 11.9929 v 6.4633 h -11.9929 v 3.6536 h 14.4094 v -8.8209 c 0,-7.0926 4.8824,-11.7091 12.2683,-11.7091 7.3489,0 12.0915,4.6165 12.0915,11.7091 v 15.408 h -7.806 V 463.122 c 0,-2.6694 -2.1858,-4.3497 -4.2472,-4.3497 -2.0993,0 -4.0289,1.7172 -4.0289,4.3497 v 16.1575 h -31.0833 z m 110.1804,6.5993 -6.8768,2.2887 -3.8738,-7.2099 h 5.7911 z" /><path
         id="path24"
         style="fill:#0a4478;fill-opacity:1;fill-rule:evenodd;stroke:none"
         d="m 586.8224,489.2712 h 1.7444 v -67.0099 h -1.7444 z" /><path
         id="path26"
         style="fill:#0a4478;fill-opacity:1;fill-rule:evenodd;stroke:none"
         d="m 361.495,489.2712 h 1.7441 v -67.0099 h -1.7441 z" /><path
         id="path28"
         style="fill:#017bbd;fill-opacity:1;fill-rule:evenodd;stroke:none"
         d="m 620.0872,479.3034 h -8.1669 v -2.9593 h 4.6778 V 469.65 c 0,-1.1698 -0.5468,-1.7657 -1.4616,-1.7657 -0.7993,0 -1.891,0.5341 -2.8658,1.6022 l -1.5976,-2.4443 c 1.207,-1.4593 2.7675,-2.2998 4.6987,-2.2998 2.9044,0 4.7154,1.7646 4.7154,4.8257 z m 15.1507,-0.0192 h -3.4495 v -8.3413 c 0,-1.9499 -1.1118,-3.1422 -2.7491,-3.1422 -1.6582,0 -2.8471,1.1923 -2.8471,3.1422 v 8.3413 h -3.4702 v -8.3413 c 0,-3.7987 2.4588,-6.2005 6.2969,-6.2005 3.8189,0 6.219,2.4018 6.219,6.2005 z m 15.461,-14.3782 v 14.3782 h -3.2361 v -8.8736 l -6.2968,8.8736 h -3.0578 V 464.906 h 3.2531 v 8.8517 l 6.2784,-8.8517 z m 13.5309,11.4381 v 2.9593 H 652.574 v -2.9593 h 4.0739 V 464.906 h 3.4722 v 11.4381 z m 7.626,3.0628 c -4.21,0 -7.3684,-3.1039 -7.3684,-7.2927 0,-4.2077 3.1584,-7.3718 7.3684,-7.3718 4.2302,0 7.3896,3.183 7.3896,7.3718 0,4.1689 -3.1594,7.2927 -7.3896,7.2927 z m 0.0408,-3.0628 c 2.1045,0 3.782,-1.8267 3.782,-4.2514 0,-2.4211 -1.6775,-4.292 -3.782,-4.292 -2.0891,0 -3.8605,1.8709 -3.8605,4.292 0,2.4247 1.7538,4.2514 3.8605,4.2514 z m 14.7977,3.1022 c -3.2754,0 -5.4382,-1.6829 -5.4382,-4.3325 0,-5.0944 7.211,-3.5733 7.211,-6.1208 0,-0.8218 -0.6817,-1.2501 -1.7728,-1.2501 -1.423,0 -3.5302,0.8597 -4.9325,2.1526 l -1.3445,-2.8145 c 1.6174,-1.3929 3.9569,-2.2983 6.2368,-2.2983 3.0416,0 5.4584,1.5202 5.4584,4.3968 0,5.1956 -7.2125,3.7786 -7.2125,6.262 0,0.6979 0.6043,1.0474 1.5004,1.0474 1.1148,0 2.9248,-0.6145 4.3685,-1.4998 l 1.3045,2.8559 c -1.4043,0.9658 -3.4118,1.6013 -5.3791,1.6013" /><path
         id="path30"
         style="fill:#017bbd;fill-opacity:1;fill-rule:evenodd;stroke:none"
         d="m 612.2687,462.39 v -14.3777 h 3.4696 v 4.0465 h 2.4738 c 3.4912,0 5.4973,1.9525 5.4973,5.3195 0,3.2051 -2.0061,5.0117 -5.4973,5.0117 z m 3.4696,-2.8755 h 2.2989 c 1.5177,0 2.3996,-0.7597 2.3996,-2.2592 0,-1.5194 -0.8819,-2.3207 -2.3996,-2.3207 h -2.2989 z m 16.6286,3.0005 c -4.2086,0 -7.3681,-3.1023 -7.3681,-7.2927 0,-4.2089 3.1595,-7.3735 7.3681,-7.3735 4.229,0 7.39,3.1824 7.39,7.3735 0,4.1689 -3.161,7.2927 -7.39,7.2927 z m 0.0408,-3.062 c 2.1036,0 3.7798,-1.8284 3.7798,-4.2514 0,-2.4219 -1.6762,-4.2925 -3.7798,-4.2925 -2.0857,0 -3.8605,1.8706 -3.8605,4.2925 0,2.423 1.7547,4.2514 3.8605,4.2514 z m 9.5551,2.937 v -14.3777 h 5.7305 c 4.386,0 7.3896,2.9373 7.3896,7.1893 0,4.2712 -2.9656,7.1884 -7.2538,7.1884 z m 3.4693,-2.9172 h 2.3187 c 2.2037,0 3.8027,-1.7447 3.8027,-4.2916 0,-2.5263 -1.5213,-4.2517 -3.6451,-4.2517 h -2.4763 z m 22.5385,0.0417 v 2.8755 h -10.6823 v -14.3777 h 10.8958 v 2.8769 h -7.4271 v 2.897 h 6.5121 v 2.8729 h -6.5121 v 2.8554 z m 17.8155,-11.5022 v 14.3978 h -3.7854 l -3.6978,-8.5646 -3.7046,8.5646 h -3.7984 v -14.3978 h 3.0986 v 9.3447 l 3.2714,-7.9047 h 2.2609 l 3.2726,7.9047 0.0196,-9.3447 z m 9.5967,14.5027 c -4.2103,0 -7.3689,-3.1023 -7.3689,-7.2927 0,-4.2089 3.1586,-7.3735 7.3689,-7.3735 4.2304,0 7.3891,3.1824 7.3891,7.3735 0,4.1689 -3.1587,7.2927 -7.3891,7.2927 z m 0.0391,-3.062 c 2.1064,0 3.78,-1.8284 3.78,-4.2514 0,-2.4219 -1.6736,-4.2925 -3.78,-4.2925 -2.0854,0 -3.8585,1.8706 -3.8585,4.2925 0,2.423 1.7524,4.2514 3.8585,4.2514 z m 14.7966,3.1002 c -3.2723,0 -5.4369,-1.6826 -5.4369,-4.3316 0,-5.0953 7.2128,-3.5745 7.2128,-6.1214 0,-0.8215 -0.6826,-1.2524 -1.7759,-1.2524 -1.419,0 -3.5252,0.8626 -4.9283,2.1552 l -1.3476,-2.8134 c 1.6177,-1.3952 3.9577,-2.2997 6.2393,-2.2997 3.0402,0 5.4573,1.5199 5.4573,4.394 0,5.1984 -7.2108,3.7808 -7.2108,6.2657 0,0.6987 0.6038,1.0482 1.4981,1.0482 1.1129,0 2.9262,-0.6165 4.3674,-1.5004 l 1.3084,2.8554 c -1.4051,0.9655 -3.4146,1.6004 -5.3838,1.6004" /><path
         id="path32"
         style="fill:#017bbd;fill-opacity:1;fill-rule:evenodd;stroke:none"
         d="m 627.2546,429.3354 v 14.3966 h -3.7848 l -3.7023,-8.5649 -3.7006,8.5649 h -3.7982 v -14.3966 h 3.098 v 9.3422 l 3.2715,-7.9047 h 2.2598 l 3.2743,7.9047 0.0187,-9.3422 z m 10.1628,15.6277 2.5356,2.321 -3.0416,1.1302 -2.0661,-3.4512 z m 2.0268,-12.9793 0.9731,-2.6484 h 3.7041 l -5.7507,14.3751 h -3.5657 l -5.8867,-14.3751 h 3.5677 l 0.9949,2.6484 z m -1.0154,2.7735 h -3.9345 l 1.9891,5.3183 z m 12.5172,9.1162 c -3.2723,0 -5.4374,-1.6824 -5.4374,-4.3339 0,-5.0907 7.2136,-3.5714 7.2136,-6.1197 0,-0.8212 -0.6828,-1.251 -1.7762,-1.251 -1.4201,0 -3.5251,0.8623 -4.9286,2.1566 l -1.345,-2.8145 c 1.6158,-1.396 3.9566,-2.3006 6.2376,-2.3006 3.0396,0 5.4567,1.5211 5.4567,4.3946 0,5.1979 -7.2127,3.7794 -7.2127,6.2648 0,0.6988 0.6057,1.0477 1.5029,1.0477 1.1115,0 2.9217,-0.6168 4.3645,-1.4998 l 1.3048,2.8562 c -1.4031,0.9638 -3.4106,1.5996 -5.3802,1.5996" /><path
         id="path34"
         style="fill:#626260;fill-opacity:1;fill-rule:nonzero;stroke:none"
         d="m 198.078,461.0908 -0.0383,14.4009 H 195.44 l -5.0351,-8.9498 -5.1129,8.9498 h -2.6167 v -14.4009 h 2.9685 v 8.4555 l 3.9999,-6.9335 h 1.4253 l 4.0193,7.1186 0.0195,-8.6406 z m 2.7575,0 h 3.1637 v 14.4009 h -3.1637 z m 15.3283,14.4009 v -8.7432 l -6.7955,8.7432 h -2.6163 v -14.4009 h 3.1232 v 8.7441 l 6.8142,-8.7441 h 2.5977 v 14.4009 z m 5.8768,-14.4009 h 3.1629 v 14.4009 h -3.1629 z m 10.4069,-0.2469 c 3.9053,0 5.7999,2.0571 5.7999,4.4609 0,5.2872 -7.9475,3.4523 -7.9475,6.1095 0,0.9091 0.7229,1.6487 2.5966,1.6487 1.2112,0 2.5194,-0.3694 3.789,-1.1308 l 0.9757,2.5308 c -1.2688,0.8436 -3.0274,1.2756 -4.7449,1.2756 -3.8854,0 -5.7597,-2.0373 -5.7597,-4.4884 0,-5.3487 7.9469,-3.4974 7.9469,-6.1917 0,-0.8822 -0.7614,-1.5401 -2.6356,-1.5401 -1.6404,0 -3.3588,0.6166 -4.5114,1.4979 l -1.074,-2.507 c 1.2107,-0.987 3.3984,-1.6654 5.565,-1.6654 z m 10.1151,0.2469 h 3.1626 v 11.6844 h 4.3747 v 2.7165 h -11.9114 v -2.7165 h 4.3741 z m 11.8908,2.6742 v 3.333 h 6.3456 v 2.592 h -6.3456 v 3.1269 h 7.1855 v 2.6748 h -10.3291 v -14.4009 h 10.5828 v 2.6742 z m 21.577,-2.6742 -3.0656,4.6284 c 1.7759,0.8028 2.8111,2.3862 2.8111,4.5468 0,3.2304 -2.285,5.2257 -5.9355,5.2257 h -5.9167 v -14.4009 h 3.1629 v 4.0113 h 2.7538 0.1562 l 2.6351,-4.0113 z m -3.4568,9.1752 c 0,-1.5636 -0.9763,-2.5101 -2.9098,-2.5101 h -2.5772 v 5.0193 h 2.5772 c 1.9335,0 2.9098,-0.9255 2.9098,-2.5092 z m 5.2137,-9.1752 h 3.1638 v 14.4009 h -3.1638 z m 12.5348,-0.2469 c 4.2968,0 7.479,3.1473 7.479,7.4469 0,4.2993 -3.1822,7.4478 -7.479,7.4478 -4.3143,0 -7.4772,-3.1683 -7.4772,-7.4478 0,-4.2789 3.1629,-7.4469 7.4772,-7.4469 z m 0,2.8389 c -2.4403,0 -4.2763,1.872 -4.2763,4.608 0,2.7358 1.836,4.6086 4.2763,4.6086 2.4412,0 4.2764,-1.8728 4.2764,-4.6086 0,-2.736 -1.8352,-4.608 -4.2764,-4.608 z m 15.3871,-2.592 h 6.2098 c 4.4717,0 7.5365,2.8381 7.5365,7.2 0,4.3617 -3.0648,7.2009 -7.5365,7.2009 h -6.2098 z m 3.1631,2.736 v 8.9286 h 2.8905 c 2.7142,0 4.4907,-1.7073 4.4907,-4.4646 0,-2.7564 -1.7765,-4.464 -4.4907,-4.464 z m 15.6209,-0.0618 v 3.333 h 6.3459 v 2.592 h -6.3459 v 3.1269 h 7.1864 v 2.6748 h -10.3297 v -14.4009 h 10.5826 v 2.6742 z" /><path
         id="path36"
         style="fill:#626260;fill-opacity:1;fill-rule:nonzero;stroke:none"
         d="m 223.2488,441.949 h 6.2092 c 4.472,0 7.5382,2.8392 7.5382,7.2009 0,4.3614 -3.0662,7.2006 -7.5382,7.2006 h -6.2092 z m 3.1637,2.7366 v 8.9289 h 2.8894 c 2.7141,0 4.4912,-1.7076 4.4912,-4.4646 0,-2.7567 -1.7771,-4.4643 -4.4912,-4.4643 z m 15.6206,-0.0618 v 3.333 h 6.3462 v 2.592 h -6.3462 v 3.1269 h 7.1858 v 2.6748 H 238.8892 V 441.949 h 10.5837 v 2.6748 z m 15.3859,11.7267 h -5.9156 V 441.949 h 3.1626 v 3.9705 h 2.753 c 3.6524,0 5.9366,1.9962 5.9366,5.2044 0,3.2312 -2.2842,5.2266 -5.9366,5.2266 z m -0.1755,-7.7151 h -2.5775 v 4.9992 h 2.5775 c 1.9341,0 2.9095,-0.9261 2.9095,-2.5107 0,-1.5627 -0.9754,-2.4885 -2.9095,-2.4885 z m 14.6838,-6.933 c 4.2953,0 7.4789,3.1476 7.4789,7.4475 0,4.2999 -3.1836,7.4466 -7.4789,7.4466 -4.3155,0 -7.4784,-3.1671 -7.4784,-7.4466 0,-4.28 3.1629,-7.4475 7.4784,-7.4475 z m 0,2.8392 c -2.4401,0 -4.2755,1.8723 -4.2755,4.6083 0,2.7354 1.8354,4.6083 4.2755,4.6083 2.4403,0 4.276,-1.8729 4.276,-4.6083 0,-2.736 -1.8357,-4.6083 -4.276,-4.6083 z m 21.4784,-2.5926 -3.066,4.6293 c 1.7773,0.8025 2.8123,2.3859 2.8123,4.5456 0,3.2312 -2.2842,5.2266 -5.9355,5.2266 H 281.3 V 441.949 h 3.1638 v 4.0116 h 2.7527 0.1562 l 2.6359,-4.0116 z m -3.456,9.1749 c 0,-1.5627 -0.9763,-2.5092 -2.9098,-2.5092 h -2.5761 v 5.0199 h 2.5761 c 1.9335,0 2.9098,-0.9261 2.9098,-2.5107 z m 7.8497,-9.1749 h 3.1634 v 11.6856 h 4.3739 v 2.7159 h -11.9106 v -2.7159 h 4.3733 z m 11.8907,2.6748 v 3.333 h 6.346 v 2.592 h -6.346 v 3.1269 h 7.1862 v 2.6748 H 306.5468 V 441.949 h 10.5834 v 2.6748 z m 13.9618,-2.9214 c 3.9059,0 5.798,2.0574 5.798,4.4612 0,5.2872 -7.9458,3.4529 -7.9458,6.1095 0,0.9094 0.722,1.6498 2.596,1.6498 1.2115,0 2.5191,-0.3705 3.7888,-1.1316 l 0.9765,2.5296 c -1.2694,0.8445 -3.0271,1.2756 -4.7446,1.2756 -3.8861,0 -5.7606,-2.0364 -5.7606,-4.4884 0,-5.3478 7.9469,-3.4965 7.9469,-6.1917 0,-0.8821 -0.7608,-1.5392 -2.6359,-1.5392 -1.6404,0 -3.3585,0.6168 -4.5105,1.4978 l -1.0735,-2.5069 c 1.2101,-0.9876 3.3968,-1.6657 5.5647,-1.6657" /></g></g></svg>
