<?xml version="1.0" encoding="UTF-8" standalone="no"?>
<svg
   id="Capa_1"
   data-name="Capa 1"
   viewBox="0 0 792.57001 819.97754"
   version="1.1"
   width="792.57001"
   height="819.97754"
   xmlns="http://www.w3.org/2000/svg"
   xmlns:svg="http://www.w3.org/2000/svg">
  <defs
     id="defs1">
    <style
       id="style1">
      .cls-1 {
        fill: #fff;
        stroke: #000;
        stroke-miterlimit: 10;
        stroke-width: .25px;
      }
    </style>
  </defs>
  <path
     id="UNCo_Activa"
     data-name="UNCo Activa"
     class="cls-1"
     d="m 738.325,255.67256 c -14.28,-23.76 -47,-19.28 -63.39,-17.92 -8.25,0.68 -17.55,2.14 -27.31,4.19 10.76,-23.25 17.7,-38.83 17.7,-38.83 0,0 77.16,-140.03 30.47,-184.7 -46.72,-44.65 -162.38,66.98 -162.38,66.98 0,0 -186.25,168.69 -193.05,174.28 -6.8,5.61 -81,69.28 -81,-11.91 0,-81.19 92.42,-196.02 107.53,-211.92 23.93,-25.27 29.5,-56.09 -12.15,-17.43 -12.71,11.82 -137.63,153.74 -168.93,195.98 -31.3,42.22 -144.53,196.55 -127.4,222.16 17.13,25.57 97.55,-9.62 123.82,-22.35 55.86,-27.01 201.48,-154.55 233.26,-184.17 22.74,-17.99 139.87,-141.02 170.46,-100.18 16.91,22.49 9.7,81.3 -0.22,129.59 -35.96,12.25 -72.42,27.83 -99.36,41.66 -46.36,23.8 -125.6,74.02 -135.76,83.48 -10.19,9.45 -50.21,40.13 49.63,-12.19 93.05,-48.71 123.71,-62.08 176.98,-75.65 -5.15,20.45 -9.34,34.26 -9.34,34.26 l -34.46,91.32 c 0,0 -24.36,62.95 16.24,6.14 21.29,-29.84 52.07,-90.37 76.58,-141.26 46.4,-5.57 63.44,-0.47 84.57,-0.86 10.29,-0.22 41.81,-6.92 27.52,-30.67" />
  <path
     class="cls-1"
     d="m 98.905,634.37256 v -108.13 h 35.33 v 102.91 h 57.73 v -102.91 h 35.33 v 108.13 c 0,14.87 -12.17,27.03 -27.03,27.03 h -74.33 c -14.87,0 -27.03,-12.16 -27.03,-27.03 z"
     id="path1" />
  <path
     class="cls-1"
     d="m 257.205,526.25256 h 100.79 c 14.87,0 27.03,12.16 27.03,27.03 v 108.13 h -35.53 v -102.91 h -56.96 v 102.91 h -35.33 z"
     id="path2" />
  <path
     class="cls-1"
     d="m 412.035,634.37256 v -81.09 c 0,-14.87 12.16,-27.03 27.03,-27.03 h 73.76 c 14.86,0 27.03,12.16 27.03,27.03 v 29.54 h -35.53 v -24.71 h -56.96 v 71.44 h 56.96 v -24.71 h 35.53 v 29.54 c 0,14.87 -12.17,27.03 -27.03,27.03 h -73.76 c -14.87,0 -27.03,-12.16 -27.03,-27.03 z"
     id="path3" />
  <path
     class="cls-1"
     d="m 564.165,634.37256 v -81.09 c 0,-14.87 12.16,-27.03 27.03,-27.03 h 73.76 c 14.87,0 27.03,12.16 27.03,27.03 v 81.09 c 0,14.87 -12.16,27.03 -27.03,27.03 h -73.76 c -14.87,0 -27.03,-12.16 -27.03,-27.03 z m 92.29,-5.21 v -70.67 h -56.96 v 70.67 z"
     id="path4" />
  <path
     class="cls-1"
     d="m 0.125,711.91256 c 0,-14.87 12.16,-27.22 27.03,-27.22 h 73.76 c 14.87,0 27.03,12.16 27.03,27.03 v 108.13 h -35.53 v -37.07 h -56.96 v 37.07 H 0.125 v -107.93 z m 92.29,39.58 v -34.95 h -56.96 v 34.95 z"
     id="path5" />
  <path
     class="cls-1"
     d="m 155.925,792.81256 v -81.09 c 0,-14.87 12.16,-27.03 27.03,-27.03 h 73.76 c 14.87,0 27.03,12.16 27.03,27.03 v 29.54 h -35.53 v -24.71 h -56.96 v 71.44 h 56.96 v -24.71 h 35.53 v 29.54 c 0,14.87 -12.16,27.03 -27.03,27.03 h -73.76 c -14.87,0 -27.03,-12.16 -27.03,-27.03 z"
     id="path6" />
  <path
     class="cls-1"
     d="m 347.635,716.93256 h -46.15 v -32.24 h 127.63 v 32.24 h -46.15 v 102.91 h -35.33 z"
     id="path7" />
  <path
     class="cls-1"
     d="m 449.755,684.69256 h 36.11 v 135.16 h -36.11 z"
     id="path8" />
  <path
     class="cls-1"
     d="m 524.665,783.74256 c -11.2,-11.78 -13.32,-20.85 -13.32,-35.53 v -63.52 h 35.53 v 61.98 c 0,14.29 5.6,19.7 14.48,29.73 l 13.9,12.55 14.68,-12.94 c 8.49,-9.85 13.9,-15.06 13.9,-29.35 v -61.98 h 35.33 v 63.52 c 0,14.67 -1.93,23.75 -12.55,34.95 l -34.76,36.69 h -33.21 l -33.98,-36.11 z"
     id="path9" />
  <path
     class="cls-1"
     d="m 664.625,711.91256 c 0,-14.87 12.16,-27.22 27.03,-27.22 h 73.76 c 14.87,0 27.03,12.16 27.03,27.03 v 108.13 h -35.53 v -37.07 h -56.96 v 37.07 h -35.33 v -107.93 z m 92.3,39.58 v -34.95 h -56.96 v 34.95 z"
     id="path10" />
</svg>
